M48
; DRILL file {KiCad 7.0.8} date Mon 09 Oct 2023 08:53:09 PM CEST
; FORMAT={-:-/ absolute / inch / decimal}
; #@! TF.CreationDate,2023-10-09T20:53:09+02:00
; #@! TF.GenerationSoftware,Kicad,Pcbnew,7.0.8
; #@! TF.FileFunction,Plated,1,2,PTH
FMAT,2
INCH
; #@! TA.AperFunction,Plated,PTH,ViaDrill
T1C0.0157
; #@! TA.AperFunction,Plated,PTH,ComponentDrill
T2C0.0276
; #@! TA.AperFunction,Plated,PTH,ComponentDrill
T3C0.0579
%
G90
G05
T1
X5.625Y-2.7188
X5.6562Y-2.6875
X5.75Y-2.875
X5.9062Y-2.4375
X6.1519Y-3.1153
X6.1551Y-3.2188
X6.2188Y-2.375
X6.2812Y-2.5625
X6.2812Y-3.375
X6.3438Y-3.2188
X6.4375Y-2.9375
T3
X4.2875Y-2.4625
X4.2875Y-3.2125
X4.3391Y-2.405
X4.3391Y-3.155
X4.5359Y-2.3853
X4.5359Y-3.1353
X4.5375Y-2.3625
X4.5375Y-3.1125
X5.0375Y-2.4625
X5.0375Y-3.2125
X5.0891Y-2.405
X5.0891Y-3.155
X5.2859Y-2.3853
X5.2859Y-3.1353
X5.2875Y-2.3625
X5.2875Y-3.1125
T2
G00X6.6826Y-2.5438
M15
G01X6.6354Y-2.5438
M16
G05
G00X6.6826Y-2.8312
M15
G01X6.6354Y-2.8312
M16
G05
G00X6.8598Y-2.5438
M15
G01X6.8125Y-2.5438
M16
G05
G00X6.8598Y-2.8312
M15
G01X6.8125Y-2.8312
M16
G05
T0
M30
