%TF.GenerationSoftware,KiCad,Pcbnew,7.0.8*%
%TF.CreationDate,2023-10-09T20:52:53+02:00*%
%TF.ProjectId,keyboard,6b657962-6f61-4726-942e-6b696361645f,rev?*%
%TF.SameCoordinates,Original*%
%TF.FileFunction,Legend,Bot*%
%TF.FilePolarity,Positive*%
%FSLAX46Y46*%
G04 Gerber Fmt 4.6, Leading zero omitted, Abs format (unit mm)*
G04 Created by KiCad (PCBNEW 7.0.8) date 2023-10-09 20:52:53*
%MOMM*%
%LPD*%
G01*
G04 APERTURE LIST*
%ADD10C,0.150000*%
%ADD11C,0.120000*%
G04 APERTURE END LIST*
D10*
X149698440Y-84623878D02*
X149698440Y-85100069D01*
X150031773Y-84100069D02*
X149698440Y-84623878D01*
X149698440Y-84623878D02*
X149365107Y-84100069D01*
X148507964Y-85100069D02*
X149079392Y-85100069D01*
X148793678Y-85100069D02*
X148793678Y-84100069D01*
X148793678Y-84100069D02*
X148888916Y-84242926D01*
X148888916Y-84242926D02*
X148984154Y-84338164D01*
X148984154Y-84338164D02*
X149079392Y-84385783D01*
X143413830Y-82001583D02*
X143461450Y-81953964D01*
X143461450Y-81953964D02*
X143509069Y-81811107D01*
X143509069Y-81811107D02*
X143509069Y-81715869D01*
X143509069Y-81715869D02*
X143461450Y-81573012D01*
X143461450Y-81573012D02*
X143366211Y-81477774D01*
X143366211Y-81477774D02*
X143270973Y-81430155D01*
X143270973Y-81430155D02*
X143080497Y-81382536D01*
X143080497Y-81382536D02*
X142937640Y-81382536D01*
X142937640Y-81382536D02*
X142747164Y-81430155D01*
X142747164Y-81430155D02*
X142651926Y-81477774D01*
X142651926Y-81477774D02*
X142556688Y-81573012D01*
X142556688Y-81573012D02*
X142509069Y-81715869D01*
X142509069Y-81715869D02*
X142509069Y-81811107D01*
X142509069Y-81811107D02*
X142556688Y-81953964D01*
X142556688Y-81953964D02*
X142604307Y-82001583D01*
X143509069Y-82953964D02*
X143509069Y-82382536D01*
X143509069Y-82668250D02*
X142509069Y-82668250D01*
X142509069Y-82668250D02*
X142651926Y-82573012D01*
X142651926Y-82573012D02*
X142747164Y-82477774D01*
X142747164Y-82477774D02*
X142794783Y-82382536D01*
X165147916Y-65479819D02*
X165481249Y-65003628D01*
X165719344Y-65479819D02*
X165719344Y-64479819D01*
X165719344Y-64479819D02*
X165338392Y-64479819D01*
X165338392Y-64479819D02*
X165243154Y-64527438D01*
X165243154Y-64527438D02*
X165195535Y-64575057D01*
X165195535Y-64575057D02*
X165147916Y-64670295D01*
X165147916Y-64670295D02*
X165147916Y-64813152D01*
X165147916Y-64813152D02*
X165195535Y-64908390D01*
X165195535Y-64908390D02*
X165243154Y-64956009D01*
X165243154Y-64956009D02*
X165338392Y-65003628D01*
X165338392Y-65003628D02*
X165719344Y-65003628D01*
X164814582Y-64479819D02*
X164195535Y-64479819D01*
X164195535Y-64479819D02*
X164528868Y-64860771D01*
X164528868Y-64860771D02*
X164386011Y-64860771D01*
X164386011Y-64860771D02*
X164290773Y-64908390D01*
X164290773Y-64908390D02*
X164243154Y-64956009D01*
X164243154Y-64956009D02*
X164195535Y-65051247D01*
X164195535Y-65051247D02*
X164195535Y-65289342D01*
X164195535Y-65289342D02*
X164243154Y-65384580D01*
X164243154Y-65384580D02*
X164290773Y-65432200D01*
X164290773Y-65432200D02*
X164386011Y-65479819D01*
X164386011Y-65479819D02*
X164671725Y-65479819D01*
X164671725Y-65479819D02*
X164766963Y-65432200D01*
X164766963Y-65432200D02*
X164814582Y-65384580D01*
X142154819Y-64349405D02*
X141154819Y-64349405D01*
X141154819Y-64349405D02*
X141154819Y-64587500D01*
X141154819Y-64587500D02*
X141202438Y-64730357D01*
X141202438Y-64730357D02*
X141297676Y-64825595D01*
X141297676Y-64825595D02*
X141392914Y-64873214D01*
X141392914Y-64873214D02*
X141583390Y-64920833D01*
X141583390Y-64920833D02*
X141726247Y-64920833D01*
X141726247Y-64920833D02*
X141916723Y-64873214D01*
X141916723Y-64873214D02*
X142011961Y-64825595D01*
X142011961Y-64825595D02*
X142107200Y-64730357D01*
X142107200Y-64730357D02*
X142154819Y-64587500D01*
X142154819Y-64587500D02*
X142154819Y-64349405D01*
X141250057Y-65301786D02*
X141202438Y-65349405D01*
X141202438Y-65349405D02*
X141154819Y-65444643D01*
X141154819Y-65444643D02*
X141154819Y-65682738D01*
X141154819Y-65682738D02*
X141202438Y-65777976D01*
X141202438Y-65777976D02*
X141250057Y-65825595D01*
X141250057Y-65825595D02*
X141345295Y-65873214D01*
X141345295Y-65873214D02*
X141440533Y-65873214D01*
X141440533Y-65873214D02*
X141583390Y-65825595D01*
X141583390Y-65825595D02*
X142154819Y-65254167D01*
X142154819Y-65254167D02*
X142154819Y-65873214D01*
X171060819Y-66524405D02*
X171870342Y-66524405D01*
X171870342Y-66524405D02*
X171965580Y-66572024D01*
X171965580Y-66572024D02*
X172013200Y-66619643D01*
X172013200Y-66619643D02*
X172060819Y-66714881D01*
X172060819Y-66714881D02*
X172060819Y-66905357D01*
X172060819Y-66905357D02*
X172013200Y-67000595D01*
X172013200Y-67000595D02*
X171965580Y-67048214D01*
X171965580Y-67048214D02*
X171870342Y-67095833D01*
X171870342Y-67095833D02*
X171060819Y-67095833D01*
X172013200Y-67524405D02*
X172060819Y-67667262D01*
X172060819Y-67667262D02*
X172060819Y-67905357D01*
X172060819Y-67905357D02*
X172013200Y-68000595D01*
X172013200Y-68000595D02*
X171965580Y-68048214D01*
X171965580Y-68048214D02*
X171870342Y-68095833D01*
X171870342Y-68095833D02*
X171775104Y-68095833D01*
X171775104Y-68095833D02*
X171679866Y-68048214D01*
X171679866Y-68048214D02*
X171632247Y-68000595D01*
X171632247Y-68000595D02*
X171584628Y-67905357D01*
X171584628Y-67905357D02*
X171537009Y-67714881D01*
X171537009Y-67714881D02*
X171489390Y-67619643D01*
X171489390Y-67619643D02*
X171441771Y-67572024D01*
X171441771Y-67572024D02*
X171346533Y-67524405D01*
X171346533Y-67524405D02*
X171251295Y-67524405D01*
X171251295Y-67524405D02*
X171156057Y-67572024D01*
X171156057Y-67572024D02*
X171108438Y-67619643D01*
X171108438Y-67619643D02*
X171060819Y-67714881D01*
X171060819Y-67714881D02*
X171060819Y-67952976D01*
X171060819Y-67952976D02*
X171108438Y-68095833D01*
X171537009Y-68857738D02*
X171584628Y-69000595D01*
X171584628Y-69000595D02*
X171632247Y-69048214D01*
X171632247Y-69048214D02*
X171727485Y-69095833D01*
X171727485Y-69095833D02*
X171870342Y-69095833D01*
X171870342Y-69095833D02*
X171965580Y-69048214D01*
X171965580Y-69048214D02*
X172013200Y-69000595D01*
X172013200Y-69000595D02*
X172060819Y-68905357D01*
X172060819Y-68905357D02*
X172060819Y-68524405D01*
X172060819Y-68524405D02*
X171060819Y-68524405D01*
X171060819Y-68524405D02*
X171060819Y-68857738D01*
X171060819Y-68857738D02*
X171108438Y-68952976D01*
X171108438Y-68952976D02*
X171156057Y-69000595D01*
X171156057Y-69000595D02*
X171251295Y-69048214D01*
X171251295Y-69048214D02*
X171346533Y-69048214D01*
X171346533Y-69048214D02*
X171441771Y-69000595D01*
X171441771Y-69000595D02*
X171489390Y-68952976D01*
X171489390Y-68952976D02*
X171537009Y-68857738D01*
X171537009Y-68857738D02*
X171537009Y-68524405D01*
X172060819Y-70048214D02*
X172060819Y-69476786D01*
X172060819Y-69762500D02*
X171060819Y-69762500D01*
X171060819Y-69762500D02*
X171203676Y-69667262D01*
X171203676Y-69667262D02*
X171298914Y-69572024D01*
X171298914Y-69572024D02*
X171346533Y-69476786D01*
X123104819Y-83336905D02*
X122104819Y-83336905D01*
X122104819Y-83336905D02*
X122104819Y-83575000D01*
X122104819Y-83575000D02*
X122152438Y-83717857D01*
X122152438Y-83717857D02*
X122247676Y-83813095D01*
X122247676Y-83813095D02*
X122342914Y-83860714D01*
X122342914Y-83860714D02*
X122533390Y-83908333D01*
X122533390Y-83908333D02*
X122676247Y-83908333D01*
X122676247Y-83908333D02*
X122866723Y-83860714D01*
X122866723Y-83860714D02*
X122961961Y-83813095D01*
X122961961Y-83813095D02*
X123057200Y-83717857D01*
X123057200Y-83717857D02*
X123104819Y-83575000D01*
X123104819Y-83575000D02*
X123104819Y-83336905D01*
X122104819Y-84241667D02*
X122104819Y-84860714D01*
X122104819Y-84860714D02*
X122485771Y-84527381D01*
X122485771Y-84527381D02*
X122485771Y-84670238D01*
X122485771Y-84670238D02*
X122533390Y-84765476D01*
X122533390Y-84765476D02*
X122581009Y-84813095D01*
X122581009Y-84813095D02*
X122676247Y-84860714D01*
X122676247Y-84860714D02*
X122914342Y-84860714D01*
X122914342Y-84860714D02*
X123009580Y-84813095D01*
X123009580Y-84813095D02*
X123057200Y-84765476D01*
X123057200Y-84765476D02*
X123104819Y-84670238D01*
X123104819Y-84670238D02*
X123104819Y-84384524D01*
X123104819Y-84384524D02*
X123057200Y-84289286D01*
X123057200Y-84289286D02*
X123009580Y-84241667D01*
X152430830Y-82001583D02*
X152478450Y-81953964D01*
X152478450Y-81953964D02*
X152526069Y-81811107D01*
X152526069Y-81811107D02*
X152526069Y-81715869D01*
X152526069Y-81715869D02*
X152478450Y-81573012D01*
X152478450Y-81573012D02*
X152383211Y-81477774D01*
X152383211Y-81477774D02*
X152287973Y-81430155D01*
X152287973Y-81430155D02*
X152097497Y-81382536D01*
X152097497Y-81382536D02*
X151954640Y-81382536D01*
X151954640Y-81382536D02*
X151764164Y-81430155D01*
X151764164Y-81430155D02*
X151668926Y-81477774D01*
X151668926Y-81477774D02*
X151573688Y-81573012D01*
X151573688Y-81573012D02*
X151526069Y-81715869D01*
X151526069Y-81715869D02*
X151526069Y-81811107D01*
X151526069Y-81811107D02*
X151573688Y-81953964D01*
X151573688Y-81953964D02*
X151621307Y-82001583D01*
X151621307Y-82382536D02*
X151573688Y-82430155D01*
X151573688Y-82430155D02*
X151526069Y-82525393D01*
X151526069Y-82525393D02*
X151526069Y-82763488D01*
X151526069Y-82763488D02*
X151573688Y-82858726D01*
X151573688Y-82858726D02*
X151621307Y-82906345D01*
X151621307Y-82906345D02*
X151716545Y-82953964D01*
X151716545Y-82953964D02*
X151811783Y-82953964D01*
X151811783Y-82953964D02*
X151954640Y-82906345D01*
X151954640Y-82906345D02*
X152526069Y-82334917D01*
X152526069Y-82334917D02*
X152526069Y-82953964D01*
X165124416Y-67511819D02*
X165457749Y-67035628D01*
X165695844Y-67511819D02*
X165695844Y-66511819D01*
X165695844Y-66511819D02*
X165314892Y-66511819D01*
X165314892Y-66511819D02*
X165219654Y-66559438D01*
X165219654Y-66559438D02*
X165172035Y-66607057D01*
X165172035Y-66607057D02*
X165124416Y-66702295D01*
X165124416Y-66702295D02*
X165124416Y-66845152D01*
X165124416Y-66845152D02*
X165172035Y-66940390D01*
X165172035Y-66940390D02*
X165219654Y-66988009D01*
X165219654Y-66988009D02*
X165314892Y-67035628D01*
X165314892Y-67035628D02*
X165695844Y-67035628D01*
X164743463Y-66607057D02*
X164695844Y-66559438D01*
X164695844Y-66559438D02*
X164600606Y-66511819D01*
X164600606Y-66511819D02*
X164362511Y-66511819D01*
X164362511Y-66511819D02*
X164267273Y-66559438D01*
X164267273Y-66559438D02*
X164219654Y-66607057D01*
X164219654Y-66607057D02*
X164172035Y-66702295D01*
X164172035Y-66702295D02*
X164172035Y-66797533D01*
X164172035Y-66797533D02*
X164219654Y-66940390D01*
X164219654Y-66940390D02*
X164791082Y-67511819D01*
X164791082Y-67511819D02*
X164172035Y-67511819D01*
X152012916Y-64903830D02*
X152060535Y-64951450D01*
X152060535Y-64951450D02*
X152203392Y-64999069D01*
X152203392Y-64999069D02*
X152298630Y-64999069D01*
X152298630Y-64999069D02*
X152441487Y-64951450D01*
X152441487Y-64951450D02*
X152536725Y-64856211D01*
X152536725Y-64856211D02*
X152584344Y-64760973D01*
X152584344Y-64760973D02*
X152631963Y-64570497D01*
X152631963Y-64570497D02*
X152631963Y-64427640D01*
X152631963Y-64427640D02*
X152584344Y-64237164D01*
X152584344Y-64237164D02*
X152536725Y-64141926D01*
X152536725Y-64141926D02*
X152441487Y-64046688D01*
X152441487Y-64046688D02*
X152298630Y-63999069D01*
X152298630Y-63999069D02*
X152203392Y-63999069D01*
X152203392Y-63999069D02*
X152060535Y-64046688D01*
X152060535Y-64046688D02*
X152012916Y-64094307D01*
X151108154Y-63999069D02*
X151584344Y-63999069D01*
X151584344Y-63999069D02*
X151631963Y-64475259D01*
X151631963Y-64475259D02*
X151584344Y-64427640D01*
X151584344Y-64427640D02*
X151489106Y-64380021D01*
X151489106Y-64380021D02*
X151251011Y-64380021D01*
X151251011Y-64380021D02*
X151155773Y-64427640D01*
X151155773Y-64427640D02*
X151108154Y-64475259D01*
X151108154Y-64475259D02*
X151060535Y-64570497D01*
X151060535Y-64570497D02*
X151060535Y-64808592D01*
X151060535Y-64808592D02*
X151108154Y-64903830D01*
X151108154Y-64903830D02*
X151155773Y-64951450D01*
X151155773Y-64951450D02*
X151251011Y-64999069D01*
X151251011Y-64999069D02*
X151489106Y-64999069D01*
X151489106Y-64999069D02*
X151584344Y-64951450D01*
X151584344Y-64951450D02*
X151631963Y-64903830D01*
X158760416Y-86785830D02*
X158808035Y-86833450D01*
X158808035Y-86833450D02*
X158950892Y-86881069D01*
X158950892Y-86881069D02*
X159046130Y-86881069D01*
X159046130Y-86881069D02*
X159188987Y-86833450D01*
X159188987Y-86833450D02*
X159284225Y-86738211D01*
X159284225Y-86738211D02*
X159331844Y-86642973D01*
X159331844Y-86642973D02*
X159379463Y-86452497D01*
X159379463Y-86452497D02*
X159379463Y-86309640D01*
X159379463Y-86309640D02*
X159331844Y-86119164D01*
X159331844Y-86119164D02*
X159284225Y-86023926D01*
X159284225Y-86023926D02*
X159188987Y-85928688D01*
X159188987Y-85928688D02*
X159046130Y-85881069D01*
X159046130Y-85881069D02*
X158950892Y-85881069D01*
X158950892Y-85881069D02*
X158808035Y-85928688D01*
X158808035Y-85928688D02*
X158760416Y-85976307D01*
X157903273Y-85881069D02*
X158093749Y-85881069D01*
X158093749Y-85881069D02*
X158188987Y-85928688D01*
X158188987Y-85928688D02*
X158236606Y-85976307D01*
X158236606Y-85976307D02*
X158331844Y-86119164D01*
X158331844Y-86119164D02*
X158379463Y-86309640D01*
X158379463Y-86309640D02*
X158379463Y-86690592D01*
X158379463Y-86690592D02*
X158331844Y-86785830D01*
X158331844Y-86785830D02*
X158284225Y-86833450D01*
X158284225Y-86833450D02*
X158188987Y-86881069D01*
X158188987Y-86881069D02*
X157998511Y-86881069D01*
X157998511Y-86881069D02*
X157903273Y-86833450D01*
X157903273Y-86833450D02*
X157855654Y-86785830D01*
X157855654Y-86785830D02*
X157808035Y-86690592D01*
X157808035Y-86690592D02*
X157808035Y-86452497D01*
X157808035Y-86452497D02*
X157855654Y-86357259D01*
X157855654Y-86357259D02*
X157903273Y-86309640D01*
X157903273Y-86309640D02*
X157998511Y-86262021D01*
X157998511Y-86262021D02*
X158188987Y-86262021D01*
X158188987Y-86262021D02*
X158284225Y-86309640D01*
X158284225Y-86309640D02*
X158331844Y-86357259D01*
X158331844Y-86357259D02*
X158379463Y-86452497D01*
X172183200Y-85110417D02*
X172230819Y-85253274D01*
X172230819Y-85253274D02*
X172230819Y-85491369D01*
X172230819Y-85491369D02*
X172183200Y-85586607D01*
X172183200Y-85586607D02*
X172135580Y-85634226D01*
X172135580Y-85634226D02*
X172040342Y-85681845D01*
X172040342Y-85681845D02*
X171945104Y-85681845D01*
X171945104Y-85681845D02*
X171849866Y-85634226D01*
X171849866Y-85634226D02*
X171802247Y-85586607D01*
X171802247Y-85586607D02*
X171754628Y-85491369D01*
X171754628Y-85491369D02*
X171707009Y-85300893D01*
X171707009Y-85300893D02*
X171659390Y-85205655D01*
X171659390Y-85205655D02*
X171611771Y-85158036D01*
X171611771Y-85158036D02*
X171516533Y-85110417D01*
X171516533Y-85110417D02*
X171421295Y-85110417D01*
X171421295Y-85110417D02*
X171326057Y-85158036D01*
X171326057Y-85158036D02*
X171278438Y-85205655D01*
X171278438Y-85205655D02*
X171230819Y-85300893D01*
X171230819Y-85300893D02*
X171230819Y-85538988D01*
X171230819Y-85538988D02*
X171278438Y-85681845D01*
X171230819Y-86015179D02*
X172230819Y-86253274D01*
X172230819Y-86253274D02*
X171516533Y-86443750D01*
X171516533Y-86443750D02*
X172230819Y-86634226D01*
X172230819Y-86634226D02*
X171230819Y-86872322D01*
X172230819Y-87777083D02*
X172230819Y-87205655D01*
X172230819Y-87491369D02*
X171230819Y-87491369D01*
X171230819Y-87491369D02*
X171373676Y-87396131D01*
X171373676Y-87396131D02*
X171468914Y-87300893D01*
X171468914Y-87300893D02*
X171516533Y-87205655D01*
X159251916Y-61670830D02*
X159299535Y-61718450D01*
X159299535Y-61718450D02*
X159442392Y-61766069D01*
X159442392Y-61766069D02*
X159537630Y-61766069D01*
X159537630Y-61766069D02*
X159680487Y-61718450D01*
X159680487Y-61718450D02*
X159775725Y-61623211D01*
X159775725Y-61623211D02*
X159823344Y-61527973D01*
X159823344Y-61527973D02*
X159870963Y-61337497D01*
X159870963Y-61337497D02*
X159870963Y-61194640D01*
X159870963Y-61194640D02*
X159823344Y-61004164D01*
X159823344Y-61004164D02*
X159775725Y-60908926D01*
X159775725Y-60908926D02*
X159680487Y-60813688D01*
X159680487Y-60813688D02*
X159537630Y-60766069D01*
X159537630Y-60766069D02*
X159442392Y-60766069D01*
X159442392Y-60766069D02*
X159299535Y-60813688D01*
X159299535Y-60813688D02*
X159251916Y-60861307D01*
X158918582Y-60766069D02*
X158251916Y-60766069D01*
X158251916Y-60766069D02*
X158680487Y-61766069D01*
X165866333Y-57046259D02*
X166199666Y-57046259D01*
X166199666Y-57570069D02*
X166199666Y-56570069D01*
X166199666Y-56570069D02*
X165723476Y-56570069D01*
X164818714Y-57570069D02*
X165390142Y-57570069D01*
X165104428Y-57570069D02*
X165104428Y-56570069D01*
X165104428Y-56570069D02*
X165199666Y-56712926D01*
X165199666Y-56712926D02*
X165294904Y-56808164D01*
X165294904Y-56808164D02*
X165390142Y-56855783D01*
X123104819Y-64411905D02*
X122104819Y-64411905D01*
X122104819Y-64411905D02*
X122104819Y-64650000D01*
X122104819Y-64650000D02*
X122152438Y-64792857D01*
X122152438Y-64792857D02*
X122247676Y-64888095D01*
X122247676Y-64888095D02*
X122342914Y-64935714D01*
X122342914Y-64935714D02*
X122533390Y-64983333D01*
X122533390Y-64983333D02*
X122676247Y-64983333D01*
X122676247Y-64983333D02*
X122866723Y-64935714D01*
X122866723Y-64935714D02*
X122961961Y-64888095D01*
X122961961Y-64888095D02*
X123057200Y-64792857D01*
X123057200Y-64792857D02*
X123104819Y-64650000D01*
X123104819Y-64650000D02*
X123104819Y-64411905D01*
X123104819Y-65935714D02*
X123104819Y-65364286D01*
X123104819Y-65650000D02*
X122104819Y-65650000D01*
X122104819Y-65650000D02*
X122247676Y-65554762D01*
X122247676Y-65554762D02*
X122342914Y-65459524D01*
X122342914Y-65459524D02*
X122390533Y-65364286D01*
X145064830Y-75590583D02*
X145112450Y-75542964D01*
X145112450Y-75542964D02*
X145160069Y-75400107D01*
X145160069Y-75400107D02*
X145160069Y-75304869D01*
X145160069Y-75304869D02*
X145112450Y-75162012D01*
X145112450Y-75162012D02*
X145017211Y-75066774D01*
X145017211Y-75066774D02*
X144921973Y-75019155D01*
X144921973Y-75019155D02*
X144731497Y-74971536D01*
X144731497Y-74971536D02*
X144588640Y-74971536D01*
X144588640Y-74971536D02*
X144398164Y-75019155D01*
X144398164Y-75019155D02*
X144302926Y-75066774D01*
X144302926Y-75066774D02*
X144207688Y-75162012D01*
X144207688Y-75162012D02*
X144160069Y-75304869D01*
X144160069Y-75304869D02*
X144160069Y-75400107D01*
X144160069Y-75400107D02*
X144207688Y-75542964D01*
X144207688Y-75542964D02*
X144255307Y-75590583D01*
X144493402Y-76447726D02*
X145160069Y-76447726D01*
X144112450Y-76209631D02*
X144826735Y-75971536D01*
X144826735Y-75971536D02*
X144826735Y-76590583D01*
X156291154Y-64140069D02*
X156291154Y-64949592D01*
X156291154Y-64949592D02*
X156243535Y-65044830D01*
X156243535Y-65044830D02*
X156195916Y-65092450D01*
X156195916Y-65092450D02*
X156100678Y-65140069D01*
X156100678Y-65140069D02*
X155910202Y-65140069D01*
X155910202Y-65140069D02*
X155814964Y-65092450D01*
X155814964Y-65092450D02*
X155767345Y-65044830D01*
X155767345Y-65044830D02*
X155719726Y-64949592D01*
X155719726Y-64949592D02*
X155719726Y-64140069D01*
X154719726Y-65140069D02*
X155291154Y-65140069D01*
X155005440Y-65140069D02*
X155005440Y-64140069D01*
X155005440Y-64140069D02*
X155100678Y-64282926D01*
X155100678Y-64282926D02*
X155195916Y-64378164D01*
X155195916Y-64378164D02*
X155291154Y-64425783D01*
X159710416Y-82273569D02*
X160043749Y-81797378D01*
X160281844Y-82273569D02*
X160281844Y-81273569D01*
X160281844Y-81273569D02*
X159900892Y-81273569D01*
X159900892Y-81273569D02*
X159805654Y-81321188D01*
X159805654Y-81321188D02*
X159758035Y-81368807D01*
X159758035Y-81368807D02*
X159710416Y-81464045D01*
X159710416Y-81464045D02*
X159710416Y-81606902D01*
X159710416Y-81606902D02*
X159758035Y-81702140D01*
X159758035Y-81702140D02*
X159805654Y-81749759D01*
X159805654Y-81749759D02*
X159900892Y-81797378D01*
X159900892Y-81797378D02*
X160281844Y-81797378D01*
X158758035Y-82273569D02*
X159329463Y-82273569D01*
X159043749Y-82273569D02*
X159043749Y-81273569D01*
X159043749Y-81273569D02*
X159138987Y-81416426D01*
X159138987Y-81416426D02*
X159234225Y-81511664D01*
X159234225Y-81511664D02*
X159329463Y-81559283D01*
X142154819Y-83399405D02*
X141154819Y-83399405D01*
X141154819Y-83399405D02*
X141154819Y-83637500D01*
X141154819Y-83637500D02*
X141202438Y-83780357D01*
X141202438Y-83780357D02*
X141297676Y-83875595D01*
X141297676Y-83875595D02*
X141392914Y-83923214D01*
X141392914Y-83923214D02*
X141583390Y-83970833D01*
X141583390Y-83970833D02*
X141726247Y-83970833D01*
X141726247Y-83970833D02*
X141916723Y-83923214D01*
X141916723Y-83923214D02*
X142011961Y-83875595D01*
X142011961Y-83875595D02*
X142107200Y-83780357D01*
X142107200Y-83780357D02*
X142154819Y-83637500D01*
X142154819Y-83637500D02*
X142154819Y-83399405D01*
X141488152Y-84827976D02*
X142154819Y-84827976D01*
X141107200Y-84589881D02*
X141821485Y-84351786D01*
X141821485Y-84351786D02*
X141821485Y-84970833D01*
X149901069Y-66961083D02*
X149424878Y-66627750D01*
X149901069Y-66389655D02*
X148901069Y-66389655D01*
X148901069Y-66389655D02*
X148901069Y-66770607D01*
X148901069Y-66770607D02*
X148948688Y-66865845D01*
X148948688Y-66865845D02*
X148996307Y-66913464D01*
X148996307Y-66913464D02*
X149091545Y-66961083D01*
X149091545Y-66961083D02*
X149234402Y-66961083D01*
X149234402Y-66961083D02*
X149329640Y-66913464D01*
X149329640Y-66913464D02*
X149377259Y-66865845D01*
X149377259Y-66865845D02*
X149424878Y-66770607D01*
X149424878Y-66770607D02*
X149424878Y-66389655D01*
X149234402Y-67818226D02*
X149901069Y-67818226D01*
X148853450Y-67580131D02*
X149567735Y-67342036D01*
X149567735Y-67342036D02*
X149567735Y-67961083D01*
X166345830Y-71908333D02*
X166393450Y-71860714D01*
X166393450Y-71860714D02*
X166441069Y-71717857D01*
X166441069Y-71717857D02*
X166441069Y-71622619D01*
X166441069Y-71622619D02*
X166393450Y-71479762D01*
X166393450Y-71479762D02*
X166298211Y-71384524D01*
X166298211Y-71384524D02*
X166202973Y-71336905D01*
X166202973Y-71336905D02*
X166012497Y-71289286D01*
X166012497Y-71289286D02*
X165869640Y-71289286D01*
X165869640Y-71289286D02*
X165679164Y-71336905D01*
X165679164Y-71336905D02*
X165583926Y-71384524D01*
X165583926Y-71384524D02*
X165488688Y-71479762D01*
X165488688Y-71479762D02*
X165441069Y-71622619D01*
X165441069Y-71622619D02*
X165441069Y-71717857D01*
X165441069Y-71717857D02*
X165488688Y-71860714D01*
X165488688Y-71860714D02*
X165536307Y-71908333D01*
X165441069Y-72241667D02*
X165441069Y-72860714D01*
X165441069Y-72860714D02*
X165822021Y-72527381D01*
X165822021Y-72527381D02*
X165822021Y-72670238D01*
X165822021Y-72670238D02*
X165869640Y-72765476D01*
X165869640Y-72765476D02*
X165917259Y-72813095D01*
X165917259Y-72813095D02*
X166012497Y-72860714D01*
X166012497Y-72860714D02*
X166250592Y-72860714D01*
X166250592Y-72860714D02*
X166345830Y-72813095D01*
X166345830Y-72813095D02*
X166393450Y-72765476D01*
X166393450Y-72765476D02*
X166441069Y-72670238D01*
X166441069Y-72670238D02*
X166441069Y-72384524D01*
X166441069Y-72384524D02*
X166393450Y-72289286D01*
X166393450Y-72289286D02*
X166345830Y-72241667D01*
D11*
%TO.C,Y1*%
X147222250Y-80545250D02*
X151222250Y-80545250D01*
X147222250Y-83845250D02*
X147222250Y-80545250D01*
%TO.C,C1*%
X145469250Y-81906998D02*
X145469250Y-82429502D01*
X143999250Y-81906998D02*
X143999250Y-82429502D01*
%TO.C,R3*%
X165208314Y-67410000D02*
X164754186Y-67410000D01*
X165208314Y-65940000D02*
X164754186Y-65940000D01*
%TO.C,D2*%
X138700000Y-67447500D02*
X138700000Y-63437500D01*
X140700000Y-67447500D02*
X138700000Y-67447500D01*
X140700000Y-67447500D02*
X140700000Y-63437500D01*
D10*
%TO.C,USB1*%
X173638000Y-72112500D02*
X168188000Y-72112500D01*
X173638000Y-64412500D02*
X168188000Y-64412500D01*
X168188000Y-64412500D02*
X168188000Y-72112500D01*
D11*
%TO.C,D3*%
X119650000Y-86435000D02*
X119650000Y-82425000D01*
X121650000Y-86435000D02*
X119650000Y-86435000D01*
X121650000Y-86435000D02*
X121650000Y-82425000D01*
%TO.C,C2*%
X154486250Y-81906998D02*
X154486250Y-82429502D01*
X153016250Y-81906998D02*
X153016250Y-82429502D01*
%TO.C,R2*%
X165184814Y-69442000D02*
X164730686Y-69442000D01*
X165184814Y-67972000D02*
X164730686Y-67972000D01*
%TO.C,C5*%
X151584998Y-62129250D02*
X152107502Y-62129250D01*
X151584998Y-63599250D02*
X152107502Y-63599250D01*
%TO.C,C6*%
X158855002Y-88841250D02*
X158332498Y-88841250D01*
X158855002Y-87371250D02*
X158332498Y-87371250D01*
D10*
%TO.C,SW1*%
X170875000Y-83918750D02*
X165675000Y-83918750D01*
X165675000Y-83918750D02*
X165675000Y-89118750D01*
X170875000Y-89118750D02*
X170875000Y-83918750D01*
X165675000Y-89118750D02*
X170875000Y-89118750D01*
X169275000Y-86518750D02*
G75*
G03*
X169275000Y-86518750I-1000000J0D01*
G01*
D11*
%TO.C,C7*%
X159346502Y-63726250D02*
X158823998Y-63726250D01*
X159346502Y-62256250D02*
X158823998Y-62256250D01*
%TO.C,F1*%
X166135064Y-59845250D02*
X164930936Y-59845250D01*
X166135064Y-58025250D02*
X164930936Y-58025250D01*
%TO.C,D1*%
X119650000Y-67510000D02*
X119650000Y-63500000D01*
X121650000Y-67510000D02*
X119650000Y-67510000D01*
X121650000Y-67510000D02*
X121650000Y-63500000D01*
%TO.C,C4*%
X147120250Y-75495998D02*
X147120250Y-76018502D01*
X145650250Y-75495998D02*
X145650250Y-76018502D01*
D10*
%TO.C,U1*%
X160704250Y-77310250D02*
X160704250Y-76635250D01*
X160704250Y-77310250D02*
X160029250Y-77310250D01*
X160704250Y-67535250D02*
X161979250Y-67535250D01*
X160704250Y-66960250D02*
X160704250Y-67535250D01*
X160704250Y-66960250D02*
X160029250Y-66960250D01*
X150354250Y-77310250D02*
X151029250Y-77310250D01*
X150354250Y-77310250D02*
X150354250Y-76635250D01*
X150354250Y-66960250D02*
X151029250Y-66960250D01*
X150354250Y-66960250D02*
X150354250Y-67635250D01*
D11*
%TO.C,R1*%
X159316686Y-79433750D02*
X159770814Y-79433750D01*
X159316686Y-80903750D02*
X159770814Y-80903750D01*
%TO.C,D4*%
X138700000Y-86497500D02*
X138700000Y-82487500D01*
X140700000Y-86497500D02*
X138700000Y-86497500D01*
X140700000Y-86497500D02*
X140700000Y-82487500D01*
%TO.C,R4*%
X147061250Y-67354814D02*
X147061250Y-66900686D01*
X148531250Y-67354814D02*
X148531250Y-66900686D01*
%TO.C,C3*%
X163571250Y-72336252D02*
X163571250Y-71813748D01*
X165041250Y-72336252D02*
X165041250Y-71813748D01*
%TD*%
M02*
