%TF.GenerationSoftware,KiCad,Pcbnew,7.0.8*%
%TF.CreationDate,2023-10-09T20:52:53+02:00*%
%TF.ProjectId,keyboard,6b657962-6f61-4726-942e-6b696361645f,rev?*%
%TF.SameCoordinates,Original*%
%TF.FileFunction,Soldermask,Bot*%
%TF.FilePolarity,Negative*%
%FSLAX46Y46*%
G04 Gerber Fmt 4.6, Leading zero omitted, Abs format (unit mm)*
G04 Created by KiCad (PCBNEW 7.0.8) date 2023-10-09 20:52:53*
%MOMM*%
%LPD*%
G01*
G04 APERTURE LIST*
G04 Aperture macros list*
%AMRoundRect*
0 Rectangle with rounded corners*
0 $1 Rounding radius*
0 $2 $3 $4 $5 $6 $7 $8 $9 X,Y pos of 4 corners*
0 Add a 4 corners polygon primitive as box body*
4,1,4,$2,$3,$4,$5,$6,$7,$8,$9,$2,$3,0*
0 Add four circle primitives for the rounded corners*
1,1,$1+$1,$2,$3*
1,1,$1+$1,$4,$5*
1,1,$1+$1,$6,$7*
1,1,$1+$1,$8,$9*
0 Add four rect primitives between the rounded corners*
20,1,$1+$1,$2,$3,$4,$5,0*
20,1,$1+$1,$4,$5,$6,$7,0*
20,1,$1+$1,$6,$7,$8,$9,0*
20,1,$1+$1,$8,$9,$2,$3,0*%
%AMHorizOval*
0 Thick line with rounded ends*
0 $1 width*
0 $2 $3 position (X,Y) of the first rounded end (center of the circle)*
0 $4 $5 position (X,Y) of the second rounded end (center of the circle)*
0 Add line between two ends*
20,1,$1,$2,$3,$4,$5,0*
0 Add two circle primitives to create the rounded ends*
1,1,$1,$2,$3*
1,1,$1,$4,$5*%
G04 Aperture macros list end*
%ADD10C,1.750000*%
%ADD11C,3.987800*%
%ADD12HorizOval,2.250000X0.655001X0.730000X-0.655001X-0.730000X0*%
%ADD13C,2.250000*%
%ADD14HorizOval,2.250000X0.020000X0.290000X-0.020000X-0.290000X0*%
%ADD15R,1.400000X1.200000*%
%ADD16RoundRect,0.250000X-0.475000X0.250000X-0.475000X-0.250000X0.475000X-0.250000X0.475000X0.250000X0*%
%ADD17RoundRect,0.250000X0.262500X0.450000X-0.262500X0.450000X-0.262500X-0.450000X0.262500X-0.450000X0*%
%ADD18RoundRect,0.225000X0.375000X-0.225000X0.375000X0.225000X-0.375000X0.225000X-0.375000X-0.225000X0*%
%ADD19R,2.250000X0.500000*%
%ADD20O,2.700000X1.700000*%
%ADD21RoundRect,0.250000X-0.250000X-0.475000X0.250000X-0.475000X0.250000X0.475000X-0.250000X0.475000X0*%
%ADD22RoundRect,0.250000X0.250000X0.475000X-0.250000X0.475000X-0.250000X-0.475000X0.250000X-0.475000X0*%
%ADD23R,1.100000X1.800000*%
%ADD24RoundRect,0.250000X0.375000X0.625000X-0.375000X0.625000X-0.375000X-0.625000X0.375000X-0.625000X0*%
%ADD25R,1.500000X0.550000*%
%ADD26R,0.550000X1.500000*%
%ADD27RoundRect,0.250000X-0.262500X-0.450000X0.262500X-0.450000X0.262500X0.450000X-0.262500X0.450000X0*%
%ADD28RoundRect,0.250000X0.450000X-0.262500X0.450000X0.262500X-0.450000X0.262500X-0.450000X-0.262500X0*%
%ADD29RoundRect,0.250000X0.475000X-0.250000X0.475000X0.250000X-0.475000X0.250000X-0.475000X-0.250000X0*%
G04 APERTURE END LIST*
D10*
%TO.C,MX1*%
X107632500Y-65087500D03*
D11*
X112712500Y-65087500D03*
D10*
X117792500Y-65087500D03*
D12*
X109557501Y-61817500D03*
D13*
X110212500Y-61087500D03*
D14*
X115232500Y-60297500D03*
D13*
X115252500Y-60007500D03*
%TD*%
D10*
%TO.C,MX3*%
X107632500Y-84137500D03*
D11*
X112712500Y-84137500D03*
D10*
X117792500Y-84137500D03*
D12*
X109557501Y-80867500D03*
D13*
X110212500Y-80137500D03*
D14*
X115232500Y-79347500D03*
D13*
X115252500Y-79057500D03*
%TD*%
D10*
%TO.C,MX4*%
X126682500Y-84137500D03*
D11*
X131762500Y-84137500D03*
D10*
X136842500Y-84137500D03*
D12*
X128607501Y-80867500D03*
D13*
X129262500Y-80137500D03*
D14*
X134282500Y-79347500D03*
D13*
X134302500Y-79057500D03*
%TD*%
D10*
%TO.C,MX2*%
X126682500Y-65087500D03*
D11*
X131762500Y-65087500D03*
D10*
X136842500Y-65087500D03*
D12*
X128607501Y-61817500D03*
D13*
X129262500Y-61087500D03*
D14*
X134282500Y-60297500D03*
D13*
X134302500Y-60007500D03*
%TD*%
D15*
%TO.C,Y1*%
X148122250Y-81345250D03*
X150322250Y-81345250D03*
X150322250Y-83045250D03*
X148122250Y-83045250D03*
%TD*%
D16*
%TO.C,C1*%
X144734250Y-81218250D03*
X144734250Y-83118250D03*
%TD*%
D17*
%TO.C,R3*%
X165893750Y-66675000D03*
X164068750Y-66675000D03*
%TD*%
D18*
%TO.C,D2*%
X139700000Y-66737500D03*
X139700000Y-63437500D03*
%TD*%
D19*
%TO.C,USB1*%
X169138000Y-69862500D03*
X169138000Y-69062500D03*
X169138000Y-68262500D03*
X169138000Y-67462500D03*
X169138000Y-66662500D03*
D20*
X173638000Y-71912500D03*
X173638000Y-64612500D03*
X169138000Y-71912500D03*
X169138000Y-64612500D03*
%TD*%
D18*
%TO.C,D3*%
X120650000Y-85725000D03*
X120650000Y-82425000D03*
%TD*%
D16*
%TO.C,C2*%
X153751250Y-81218250D03*
X153751250Y-83118250D03*
%TD*%
D17*
%TO.C,R2*%
X165870250Y-68707000D03*
X164045250Y-68707000D03*
%TD*%
D21*
%TO.C,C5*%
X150896250Y-62864250D03*
X152796250Y-62864250D03*
%TD*%
D22*
%TO.C,C6*%
X159543750Y-88106250D03*
X157643750Y-88106250D03*
%TD*%
D23*
%TO.C,SW1*%
X170125000Y-89618750D03*
X166425000Y-83418750D03*
X166425000Y-89618750D03*
X170125000Y-83418750D03*
%TD*%
D22*
%TO.C,C7*%
X160035250Y-62991250D03*
X158135250Y-62991250D03*
%TD*%
D24*
%TO.C,F1*%
X166933000Y-58935250D03*
X164133000Y-58935250D03*
%TD*%
D18*
%TO.C,D1*%
X120650000Y-66800000D03*
X120650000Y-63500000D03*
%TD*%
D16*
%TO.C,C4*%
X146385250Y-74807250D03*
X146385250Y-76707250D03*
%TD*%
D25*
%TO.C,U1*%
X161229250Y-68135250D03*
X161229250Y-68935250D03*
X161229250Y-69735250D03*
X161229250Y-70535250D03*
X161229250Y-71335250D03*
X161229250Y-72135250D03*
X161229250Y-72935250D03*
X161229250Y-73735250D03*
X161229250Y-74535250D03*
X161229250Y-75335250D03*
X161229250Y-76135250D03*
D26*
X159529250Y-77835250D03*
X158729250Y-77835250D03*
X157929250Y-77835250D03*
X157129250Y-77835250D03*
X156329250Y-77835250D03*
X155529250Y-77835250D03*
X154729250Y-77835250D03*
X153929250Y-77835250D03*
X153129250Y-77835250D03*
X152329250Y-77835250D03*
X151529250Y-77835250D03*
D25*
X149829250Y-76135250D03*
X149829250Y-75335250D03*
X149829250Y-74535250D03*
X149829250Y-73735250D03*
X149829250Y-72935250D03*
X149829250Y-72135250D03*
X149829250Y-71335250D03*
X149829250Y-70535250D03*
X149829250Y-69735250D03*
X149829250Y-68935250D03*
X149829250Y-68135250D03*
D26*
X151529250Y-66435250D03*
X152329250Y-66435250D03*
X153129250Y-66435250D03*
X153929250Y-66435250D03*
X154729250Y-66435250D03*
X155529250Y-66435250D03*
X156329250Y-66435250D03*
X157129250Y-66435250D03*
X157929250Y-66435250D03*
X158729250Y-66435250D03*
X159529250Y-66435250D03*
%TD*%
D27*
%TO.C,R1*%
X158631250Y-80168750D03*
X160456250Y-80168750D03*
%TD*%
D18*
%TO.C,D4*%
X139700000Y-85787500D03*
X139700000Y-82487500D03*
%TD*%
D28*
%TO.C,R4*%
X147796250Y-68040250D03*
X147796250Y-66215250D03*
%TD*%
D29*
%TO.C,C3*%
X164306250Y-73025000D03*
X164306250Y-71125000D03*
%TD*%
M02*
