%TF.GenerationSoftware,KiCad,Pcbnew,7.0.8*%
%TF.CreationDate,2023-10-09T20:52:53+02:00*%
%TF.ProjectId,keyboard,6b657962-6f61-4726-942e-6b696361645f,rev?*%
%TF.SameCoordinates,Original*%
%TF.FileFunction,Copper,L1,Top*%
%TF.FilePolarity,Positive*%
%FSLAX46Y46*%
G04 Gerber Fmt 4.6, Leading zero omitted, Abs format (unit mm)*
G04 Created by KiCad (PCBNEW 7.0.8) date 2023-10-09 20:52:53*
%MOMM*%
%LPD*%
G01*
G04 APERTURE LIST*
G04 Aperture macros list*
%AMHorizOval*
0 Thick line with rounded ends*
0 $1 width*
0 $2 $3 position (X,Y) of the first rounded end (center of the circle)*
0 $4 $5 position (X,Y) of the second rounded end (center of the circle)*
0 Add line between two ends*
20,1,$1,$2,$3,$4,$5,0*
0 Add two circle primitives to create the rounded ends*
1,1,$1,$2,$3*
1,1,$1,$4,$5*%
G04 Aperture macros list end*
%TA.AperFunction,ComponentPad*%
%ADD10HorizOval,2.250000X0.655001X0.730000X-0.655001X-0.730000X0*%
%TD*%
%TA.AperFunction,ComponentPad*%
%ADD11C,2.250000*%
%TD*%
%TA.AperFunction,ComponentPad*%
%ADD12HorizOval,2.250000X0.020000X0.290000X-0.020000X-0.290000X0*%
%TD*%
%TA.AperFunction,ComponentPad*%
%ADD13O,2.700000X1.700000*%
%TD*%
%TA.AperFunction,ViaPad*%
%ADD14C,0.800000*%
%TD*%
%TA.AperFunction,Conductor*%
%ADD15C,0.254000*%
%TD*%
%TA.AperFunction,Conductor*%
%ADD16C,0.381000*%
%TD*%
G04 APERTURE END LIST*
D10*
%TO.P,MX1,1,COL*%
%TO.N,Col0*%
X109557501Y-61817500D03*
D11*
X110212500Y-61087500D03*
D12*
%TO.P,MX1,2,ROW*%
%TO.N,Net-(D1-A)*%
X115232500Y-60297500D03*
D11*
X115252500Y-60007500D03*
%TD*%
D10*
%TO.P,MX3,1,COL*%
%TO.N,Col0*%
X109557501Y-80867500D03*
D11*
X110212500Y-80137500D03*
D12*
%TO.P,MX3,2,ROW*%
%TO.N,Net-(D3-A)*%
X115232500Y-79347500D03*
D11*
X115252500Y-79057500D03*
%TD*%
D10*
%TO.P,MX4,1,COL*%
%TO.N,Col1*%
X128607501Y-80867500D03*
D11*
X129262500Y-80137500D03*
D12*
%TO.P,MX4,2,ROW*%
%TO.N,Net-(D4-A)*%
X134282500Y-79347500D03*
D11*
X134302500Y-79057500D03*
%TD*%
D10*
%TO.P,MX2,1,COL*%
%TO.N,Col1*%
X128607501Y-61817500D03*
D11*
X129262500Y-61087500D03*
D12*
%TO.P,MX2,2,ROW*%
%TO.N,Net-(D2-A)*%
X134282500Y-60297500D03*
D11*
X134302500Y-60007500D03*
%TD*%
D13*
%TO.P,USB1,6,SHIELD*%
%TO.N,unconnected-(USB1-SHIELD-Pad6)*%
X173638000Y-71912500D03*
X173638000Y-64612500D03*
X169138000Y-71912500D03*
X169138000Y-64612500D03*
%TD*%
D14*
%TO.N,Net-(U1-XTAL2)*%
X156258569Y-79128960D03*
X156339250Y-81756250D03*
%TO.N,+5V*%
X159543750Y-65087500D03*
X157956250Y-60325000D03*
X163512500Y-74612500D03*
X159543750Y-85725000D03*
X146050000Y-73025000D03*
X150018750Y-61912500D03*
X161131250Y-81756250D03*
%TO.N,Col0*%
X143668750Y-68262500D03*
%TO.N,Col1*%
X142875000Y-69056250D03*
%TD*%
D15*
%TO.N,Net-(U1-XTAL2)*%
X156339250Y-79209641D02*
X156258569Y-79128960D01*
X156339250Y-81756250D02*
X156339250Y-79209641D01*
D16*
%TO.N,+5V*%
X144462500Y-72231250D02*
X144462500Y-73025000D01*
X159543750Y-83343750D02*
X159543750Y-85725000D01*
X157956250Y-60325000D02*
X156368750Y-60325000D01*
X162321875Y-82946875D02*
X163512500Y-81756250D01*
X149225000Y-60325000D02*
X145256250Y-60325000D01*
X150018750Y-61912500D02*
X150018750Y-60325000D01*
X144462500Y-73025000D02*
X144462500Y-80168750D01*
X159543750Y-83343750D02*
X161925000Y-83343750D01*
X156368750Y-60325000D02*
X156368750Y-61912500D01*
X144462500Y-80168750D02*
X147637500Y-83343750D01*
X161131250Y-81756250D02*
X162321875Y-82946875D01*
X150018750Y-60325000D02*
X149225000Y-60325000D01*
X163512500Y-81756250D02*
X163512500Y-74612500D01*
X145256250Y-60325000D02*
X144462500Y-60325000D01*
X144462500Y-60325000D02*
X144462500Y-72231250D01*
X147637500Y-83343750D02*
X159543750Y-83343750D01*
X156368750Y-60325000D02*
X150018750Y-60325000D01*
X146050000Y-73025000D02*
X144462500Y-73025000D01*
X156368750Y-61912500D02*
X159543750Y-65087500D01*
X161925000Y-83343750D02*
X162321875Y-82946875D01*
D15*
%TO.N,Col0*%
X113356250Y-57943750D02*
X114300000Y-57943750D01*
X110212500Y-61087500D02*
X113356250Y-57943750D01*
X108902500Y-62547500D02*
X108902500Y-81597500D01*
X114300000Y-57943750D02*
X138906250Y-57943750D01*
X140493750Y-65087500D02*
X143668750Y-68262500D01*
X140493750Y-59531250D02*
X140493750Y-65087500D01*
X138906250Y-57943750D02*
X140493750Y-59531250D01*
%TO.N,Col1*%
X138906250Y-58737500D02*
X139700000Y-59531250D01*
X131791426Y-58558574D02*
X138727324Y-58558574D01*
X139700000Y-59531250D02*
X140039750Y-59871000D01*
X138727324Y-58558574D02*
X138906250Y-58737500D01*
X140039750Y-59871000D02*
X140039750Y-65087500D01*
X140039750Y-65087500D02*
X140039750Y-66221000D01*
X140039750Y-66221000D02*
X142875000Y-69056250D01*
X127952500Y-62547500D02*
X127952500Y-81597500D01*
X129262500Y-61087500D02*
X131791426Y-58558574D01*
%TD*%
M02*
