%TF.GenerationSoftware,KiCad,Pcbnew,7.0.8*%
%TF.CreationDate,2023-10-09T20:56:40+02:00*%
%TF.ProjectId,keyboard,6b657962-6f61-4726-942e-6b696361645f,rev?*%
%TF.SameCoordinates,Original*%
%TF.FileFunction,Copper,L2,Bot*%
%TF.FilePolarity,Positive*%
%FSLAX46Y46*%
G04 Gerber Fmt 4.6, Leading zero omitted, Abs format (unit mm)*
G04 Created by KiCad (PCBNEW 7.0.8) date 2023-10-09 20:56:40*
%MOMM*%
%LPD*%
G01*
G04 APERTURE LIST*
G04 Aperture macros list*
%AMRoundRect*
0 Rectangle with rounded corners*
0 $1 Rounding radius*
0 $2 $3 $4 $5 $6 $7 $8 $9 X,Y pos of 4 corners*
0 Add a 4 corners polygon primitive as box body*
4,1,4,$2,$3,$4,$5,$6,$7,$8,$9,$2,$3,0*
0 Add four circle primitives for the rounded corners*
1,1,$1+$1,$2,$3*
1,1,$1+$1,$4,$5*
1,1,$1+$1,$6,$7*
1,1,$1+$1,$8,$9*
0 Add four rect primitives between the rounded corners*
20,1,$1+$1,$2,$3,$4,$5,0*
20,1,$1+$1,$4,$5,$6,$7,0*
20,1,$1+$1,$6,$7,$8,$9,0*
20,1,$1+$1,$8,$9,$2,$3,0*%
%AMHorizOval*
0 Thick line with rounded ends*
0 $1 width*
0 $2 $3 position (X,Y) of the first rounded end (center of the circle)*
0 $4 $5 position (X,Y) of the second rounded end (center of the circle)*
0 Add line between two ends*
20,1,$1,$2,$3,$4,$5,0*
0 Add two circle primitives to create the rounded ends*
1,1,$1,$2,$3*
1,1,$1,$4,$5*%
G04 Aperture macros list end*
%TA.AperFunction,ComponentPad*%
%ADD10HorizOval,2.250000X0.655001X0.730000X-0.655001X-0.730000X0*%
%TD*%
%TA.AperFunction,ComponentPad*%
%ADD11C,2.250000*%
%TD*%
%TA.AperFunction,ComponentPad*%
%ADD12HorizOval,2.250000X0.020000X0.290000X-0.020000X-0.290000X0*%
%TD*%
%TA.AperFunction,SMDPad,CuDef*%
%ADD13R,1.400000X1.200000*%
%TD*%
%TA.AperFunction,SMDPad,CuDef*%
%ADD14RoundRect,0.250000X-0.475000X0.250000X-0.475000X-0.250000X0.475000X-0.250000X0.475000X0.250000X0*%
%TD*%
%TA.AperFunction,SMDPad,CuDef*%
%ADD15RoundRect,0.250000X0.262500X0.450000X-0.262500X0.450000X-0.262500X-0.450000X0.262500X-0.450000X0*%
%TD*%
%TA.AperFunction,SMDPad,CuDef*%
%ADD16RoundRect,0.225000X0.375000X-0.225000X0.375000X0.225000X-0.375000X0.225000X-0.375000X-0.225000X0*%
%TD*%
%TA.AperFunction,SMDPad,CuDef*%
%ADD17R,2.250000X0.500000*%
%TD*%
%TA.AperFunction,ComponentPad*%
%ADD18O,2.700000X1.700000*%
%TD*%
%TA.AperFunction,SMDPad,CuDef*%
%ADD19RoundRect,0.250000X-0.250000X-0.475000X0.250000X-0.475000X0.250000X0.475000X-0.250000X0.475000X0*%
%TD*%
%TA.AperFunction,SMDPad,CuDef*%
%ADD20RoundRect,0.250000X0.250000X0.475000X-0.250000X0.475000X-0.250000X-0.475000X0.250000X-0.475000X0*%
%TD*%
%TA.AperFunction,SMDPad,CuDef*%
%ADD21R,1.100000X1.800000*%
%TD*%
%TA.AperFunction,SMDPad,CuDef*%
%ADD22RoundRect,0.250000X0.375000X0.625000X-0.375000X0.625000X-0.375000X-0.625000X0.375000X-0.625000X0*%
%TD*%
%TA.AperFunction,SMDPad,CuDef*%
%ADD23R,1.500000X0.550000*%
%TD*%
%TA.AperFunction,SMDPad,CuDef*%
%ADD24R,0.550000X1.500000*%
%TD*%
%TA.AperFunction,SMDPad,CuDef*%
%ADD25RoundRect,0.250000X-0.262500X-0.450000X0.262500X-0.450000X0.262500X0.450000X-0.262500X0.450000X0*%
%TD*%
%TA.AperFunction,SMDPad,CuDef*%
%ADD26RoundRect,0.250000X0.450000X-0.262500X0.450000X0.262500X-0.450000X0.262500X-0.450000X-0.262500X0*%
%TD*%
%TA.AperFunction,SMDPad,CuDef*%
%ADD27RoundRect,0.250000X0.475000X-0.250000X0.475000X0.250000X-0.475000X0.250000X-0.475000X-0.250000X0*%
%TD*%
%TA.AperFunction,ViaPad*%
%ADD28C,0.800000*%
%TD*%
%TA.AperFunction,Conductor*%
%ADD29C,0.254000*%
%TD*%
%TA.AperFunction,Conductor*%
%ADD30C,0.381000*%
%TD*%
%TA.AperFunction,Conductor*%
%ADD31C,0.203200*%
%TD*%
%TA.AperFunction,Conductor*%
%ADD32C,0.200000*%
%TD*%
G04 APERTURE END LIST*
D10*
%TO.P,MX1,1,COL*%
%TO.N,Col0*%
X109557501Y-61817500D03*
D11*
X110212500Y-61087500D03*
D12*
%TO.P,MX1,2,ROW*%
%TO.N,Net-(D1-A)*%
X115232500Y-60297500D03*
D11*
X115252500Y-60007500D03*
%TD*%
D10*
%TO.P,MX3,1,COL*%
%TO.N,Col0*%
X109557501Y-80867500D03*
D11*
X110212500Y-80137500D03*
D12*
%TO.P,MX3,2,ROW*%
%TO.N,Net-(D3-A)*%
X115232500Y-79347500D03*
D11*
X115252500Y-79057500D03*
%TD*%
D10*
%TO.P,MX4,1,COL*%
%TO.N,Col1*%
X128607501Y-80867500D03*
D11*
X129262500Y-80137500D03*
D12*
%TO.P,MX4,2,ROW*%
%TO.N,Net-(D4-A)*%
X134282500Y-79347500D03*
D11*
X134302500Y-79057500D03*
%TD*%
D10*
%TO.P,MX2,1,COL*%
%TO.N,Col1*%
X128607501Y-61817500D03*
D11*
X129262500Y-61087500D03*
D12*
%TO.P,MX2,2,ROW*%
%TO.N,Net-(D2-A)*%
X134282500Y-60297500D03*
D11*
X134302500Y-60007500D03*
%TD*%
D13*
%TO.P,Y1,1,1*%
%TO.N,Net-(U1-XTAL1)*%
X148122250Y-81345250D03*
%TO.P,Y1,2,2*%
%TO.N,GND*%
X150322250Y-81345250D03*
%TO.P,Y1,3,3*%
%TO.N,Net-(U1-XTAL2)*%
X150322250Y-83045250D03*
%TO.P,Y1,4,4*%
%TO.N,GND*%
X148122250Y-83045250D03*
%TD*%
D14*
%TO.P,C1,1*%
%TO.N,Net-(U1-XTAL1)*%
X144734250Y-81218250D03*
%TO.P,C1,2*%
%TO.N,GND*%
X144734250Y-83118250D03*
%TD*%
D15*
%TO.P,R3,1*%
%TO.N,D-*%
X165893750Y-66675000D03*
%TO.P,R3,2*%
%TO.N,Net-(U1-D-)*%
X164068750Y-66675000D03*
%TD*%
D16*
%TO.P,D2,1,K*%
%TO.N,Row0*%
X139700000Y-66737500D03*
%TO.P,D2,2,A*%
%TO.N,Net-(D2-A)*%
X139700000Y-63437500D03*
%TD*%
D17*
%TO.P,USB1,1,GND*%
%TO.N,GND*%
X169138000Y-69862500D03*
%TO.P,USB1,2,ID*%
%TO.N,unconnected-(USB1-ID-Pad2)*%
X169138000Y-69062500D03*
%TO.P,USB1,3,D+*%
%TO.N,D+*%
X169138000Y-68262500D03*
%TO.P,USB1,4,D-*%
%TO.N,D-*%
X169138000Y-67462500D03*
%TO.P,USB1,5,VBUS*%
%TO.N,VCC*%
X169138000Y-66662500D03*
D18*
%TO.P,USB1,6,SHIELD*%
%TO.N,unconnected-(USB1-SHIELD-Pad6)*%
X173638000Y-71912500D03*
X173638000Y-64612500D03*
X169138000Y-71912500D03*
X169138000Y-64612500D03*
%TD*%
D16*
%TO.P,D3,1,K*%
%TO.N,Row1*%
X120650000Y-85725000D03*
%TO.P,D3,2,A*%
%TO.N,Net-(D3-A)*%
X120650000Y-82425000D03*
%TD*%
D14*
%TO.P,C2,1*%
%TO.N,GND*%
X153751250Y-81218250D03*
%TO.P,C2,2*%
%TO.N,Net-(U1-XTAL2)*%
X153751250Y-83118250D03*
%TD*%
D15*
%TO.P,R2,1*%
%TO.N,D+*%
X165870250Y-68707000D03*
%TO.P,R2,2*%
%TO.N,Net-(U1-D+)*%
X164045250Y-68707000D03*
%TD*%
D19*
%TO.P,C5,1*%
%TO.N,+5V*%
X150896250Y-62864250D03*
%TO.P,C5,2*%
%TO.N,GND*%
X152796250Y-62864250D03*
%TD*%
D20*
%TO.P,C6,1*%
%TO.N,+5V*%
X159543750Y-88106250D03*
%TO.P,C6,2*%
%TO.N,GND*%
X157643750Y-88106250D03*
%TD*%
D21*
%TO.P,SW1,1,1*%
%TO.N,GND*%
X170125000Y-89618750D03*
%TO.P,SW1,2,2*%
%TO.N,Net-(U1-~{RESET})*%
X166425000Y-83418750D03*
%TO.P,SW1,3*%
%TO.N,N/C*%
X166425000Y-89618750D03*
%TO.P,SW1,4*%
X170125000Y-83418750D03*
%TD*%
D20*
%TO.P,C7,1*%
%TO.N,+5V*%
X160035250Y-62991250D03*
%TO.P,C7,2*%
%TO.N,GND*%
X158135250Y-62991250D03*
%TD*%
D22*
%TO.P,F1,1*%
%TO.N,VCC*%
X166933000Y-58935250D03*
%TO.P,F1,2*%
%TO.N,+5V*%
X164133000Y-58935250D03*
%TD*%
D16*
%TO.P,D1,1,K*%
%TO.N,Row0*%
X120650000Y-66800000D03*
%TO.P,D1,2,A*%
%TO.N,Net-(D1-A)*%
X120650000Y-63500000D03*
%TD*%
D14*
%TO.P,C4,1*%
%TO.N,+5V*%
X146385250Y-74807250D03*
%TO.P,C4,2*%
%TO.N,GND*%
X146385250Y-76707250D03*
%TD*%
D23*
%TO.P,U1,1,PE6*%
%TO.N,unconnected-(U1-PE6-Pad1)*%
X161229250Y-68135250D03*
%TO.P,U1,2,UVCC*%
%TO.N,+5V*%
X161229250Y-68935250D03*
%TO.P,U1,3,D-*%
%TO.N,Net-(U1-D-)*%
X161229250Y-69735250D03*
%TO.P,U1,4,D+*%
%TO.N,Net-(U1-D+)*%
X161229250Y-70535250D03*
%TO.P,U1,5,UGND*%
%TO.N,GND*%
X161229250Y-71335250D03*
%TO.P,U1,6,UCAP*%
%TO.N,Net-(U1-UCAP)*%
X161229250Y-72135250D03*
%TO.P,U1,7,VBUS*%
%TO.N,+5V*%
X161229250Y-72935250D03*
%TO.P,U1,8,PB0*%
%TO.N,unconnected-(U1-PB0-Pad8)*%
X161229250Y-73735250D03*
%TO.P,U1,9,PB1*%
%TO.N,unconnected-(U1-PB1-Pad9)*%
X161229250Y-74535250D03*
%TO.P,U1,10,PB2*%
%TO.N,unconnected-(U1-PB2-Pad10)*%
X161229250Y-75335250D03*
%TO.P,U1,11,PB3*%
%TO.N,unconnected-(U1-PB3-Pad11)*%
X161229250Y-76135250D03*
D24*
%TO.P,U1,12,PB7*%
%TO.N,unconnected-(U1-PB7-Pad12)*%
X159529250Y-77835250D03*
%TO.P,U1,13,~{RESET}*%
%TO.N,Net-(U1-~{RESET})*%
X158729250Y-77835250D03*
%TO.P,U1,14,VCC*%
%TO.N,+5V*%
X157929250Y-77835250D03*
%TO.P,U1,15,GND*%
%TO.N,GND*%
X157129250Y-77835250D03*
%TO.P,U1,16,XTAL2*%
%TO.N,Net-(U1-XTAL2)*%
X156329250Y-77835250D03*
%TO.P,U1,17,XTAL1*%
%TO.N,Net-(U1-XTAL1)*%
X155529250Y-77835250D03*
%TO.P,U1,18,PD0*%
%TO.N,unconnected-(U1-PD0-Pad18)*%
X154729250Y-77835250D03*
%TO.P,U1,19,PD1*%
%TO.N,unconnected-(U1-PD1-Pad19)*%
X153929250Y-77835250D03*
%TO.P,U1,20,PD2*%
%TO.N,unconnected-(U1-PD2-Pad20)*%
X153129250Y-77835250D03*
%TO.P,U1,21,PD3*%
%TO.N,unconnected-(U1-PD3-Pad21)*%
X152329250Y-77835250D03*
%TO.P,U1,22,PD5*%
%TO.N,unconnected-(U1-PD5-Pad22)*%
X151529250Y-77835250D03*
D23*
%TO.P,U1,23,GND*%
%TO.N,GND*%
X149829250Y-76135250D03*
%TO.P,U1,24,AVCC*%
%TO.N,+5V*%
X149829250Y-75335250D03*
%TO.P,U1,25,PD4*%
%TO.N,unconnected-(U1-PD4-Pad25)*%
X149829250Y-74535250D03*
%TO.P,U1,26,PD6*%
%TO.N,unconnected-(U1-PD6-Pad26)*%
X149829250Y-73735250D03*
%TO.P,U1,27,PD7*%
%TO.N,unconnected-(U1-PD7-Pad27)*%
X149829250Y-72935250D03*
%TO.P,U1,28,PB4*%
%TO.N,Row1*%
X149829250Y-72135250D03*
%TO.P,U1,29,PB5*%
%TO.N,Row0*%
X149829250Y-71335250D03*
%TO.P,U1,30,PB6*%
%TO.N,Col1*%
X149829250Y-70535250D03*
%TO.P,U1,31,PC6*%
%TO.N,Col0*%
X149829250Y-69735250D03*
%TO.P,U1,32,PC7*%
%TO.N,unconnected-(U1-PC7-Pad32)*%
X149829250Y-68935250D03*
%TO.P,U1,33,~{HWB}/PE2*%
%TO.N,Net-(U1-~{HWB}{slash}PE2)*%
X149829250Y-68135250D03*
D24*
%TO.P,U1,34,VCC*%
%TO.N,+5V*%
X151529250Y-66435250D03*
%TO.P,U1,35,GND*%
%TO.N,GND*%
X152329250Y-66435250D03*
%TO.P,U1,36,PF7*%
%TO.N,unconnected-(U1-PF7-Pad36)*%
X153129250Y-66435250D03*
%TO.P,U1,37,PF6*%
%TO.N,unconnected-(U1-PF6-Pad37)*%
X153929250Y-66435250D03*
%TO.P,U1,38,PF5*%
%TO.N,unconnected-(U1-PF5-Pad38)*%
X154729250Y-66435250D03*
%TO.P,U1,39,PF4*%
%TO.N,unconnected-(U1-PF4-Pad39)*%
X155529250Y-66435250D03*
%TO.P,U1,40,PF1*%
%TO.N,unconnected-(U1-PF1-Pad40)*%
X156329250Y-66435250D03*
%TO.P,U1,41,PF0*%
%TO.N,unconnected-(U1-PF0-Pad41)*%
X157129250Y-66435250D03*
%TO.P,U1,42,AREF*%
%TO.N,unconnected-(U1-AREF-Pad42)*%
X157929250Y-66435250D03*
%TO.P,U1,43,GND*%
%TO.N,GND*%
X158729250Y-66435250D03*
%TO.P,U1,44,AVCC*%
%TO.N,+5V*%
X159529250Y-66435250D03*
%TD*%
D25*
%TO.P,R1,1*%
%TO.N,+5V*%
X158631250Y-80168750D03*
%TO.P,R1,2*%
%TO.N,Net-(U1-~{RESET})*%
X160456250Y-80168750D03*
%TD*%
D16*
%TO.P,D4,1,K*%
%TO.N,Row1*%
X139700000Y-85787500D03*
%TO.P,D4,2,A*%
%TO.N,Net-(D4-A)*%
X139700000Y-82487500D03*
%TD*%
D26*
%TO.P,R4,1*%
%TO.N,Net-(U1-~{HWB}{slash}PE2)*%
X147796250Y-68040250D03*
%TO.P,R4,2*%
%TO.N,GND*%
X147796250Y-66215250D03*
%TD*%
D27*
%TO.P,C3,1*%
%TO.N,Net-(U1-UCAP)*%
X164306250Y-73025000D03*
%TO.P,C3,2*%
%TO.N,GND*%
X164306250Y-71125000D03*
%TD*%
D28*
%TO.N,Net-(U1-XTAL2)*%
X156258569Y-79128960D03*
X156339250Y-81756250D03*
%TO.N,+5V*%
X159543750Y-65087500D03*
X157956250Y-60325000D03*
X163512500Y-74612500D03*
X159543750Y-85725000D03*
X146050000Y-73025000D03*
X150018750Y-61912500D03*
X161131250Y-81756250D03*
%TO.N,Col0*%
X143668750Y-68262500D03*
%TO.N,Col1*%
X142875000Y-69056250D03*
%TD*%
D29*
%TO.N,Net-(U1-XTAL1)*%
X155529250Y-79329250D02*
X155529250Y-77835250D01*
X148122250Y-81345250D02*
X144861250Y-81345250D01*
X144861250Y-81345250D02*
X144734250Y-81218250D01*
X144734250Y-81218250D02*
X146577500Y-79375000D01*
X146577500Y-79375000D02*
X155575000Y-79375000D01*
X155575000Y-79375000D02*
X155529250Y-79329250D01*
D30*
%TO.N,GND*%
X152329250Y-64293750D02*
X149717750Y-64293750D01*
X157129250Y-87591750D02*
X157129250Y-79375000D01*
X153624250Y-81345250D02*
X153751250Y-81218250D01*
X170125000Y-89618750D02*
X167668750Y-92075000D01*
X157129250Y-72264500D02*
X158058500Y-71335250D01*
X149257250Y-76707250D02*
X149829250Y-76135250D01*
X158729250Y-66435250D02*
X158729250Y-71314500D01*
X157129250Y-76200000D02*
X157129250Y-72264500D01*
X152329250Y-64293750D02*
X152329250Y-66435250D01*
X158750000Y-71335250D02*
X161229250Y-71335250D01*
X168937633Y-69862500D02*
X167421941Y-71378192D01*
X152329250Y-67464500D02*
X157129250Y-72264500D01*
X155286000Y-81218250D02*
X157129250Y-79375000D01*
D31*
X149225000Y-81742500D02*
X149225000Y-82642500D01*
D30*
X149717750Y-64293750D02*
X147796250Y-66215250D01*
X149894000Y-76200000D02*
X157129250Y-76200000D01*
D31*
X149225000Y-82642500D02*
X148822250Y-83045250D01*
D30*
X157129250Y-79375000D02*
X157129250Y-77835250D01*
X152329250Y-63331250D02*
X152329250Y-64293750D01*
X158135250Y-62991250D02*
X158729250Y-63585250D01*
X146385250Y-76707250D02*
X149257250Y-76707250D01*
X148822250Y-83045250D02*
X148122250Y-83045250D01*
X167421941Y-71378192D02*
X167168749Y-71125000D01*
X149829250Y-76135250D02*
X149894000Y-76200000D01*
D31*
X149622250Y-81345250D02*
X149225000Y-81742500D01*
D30*
X169138000Y-69862500D02*
X168937633Y-69862500D01*
X158729250Y-71314500D02*
X158750000Y-71335250D01*
X157643750Y-88106250D02*
X157129250Y-87591750D01*
X157129250Y-77835250D02*
X157129250Y-76200000D01*
X167668750Y-92075000D02*
X161612500Y-92075000D01*
X158058500Y-71335250D02*
X158750000Y-71335250D01*
X152329250Y-66435250D02*
X152329250Y-67464500D01*
X150322250Y-81345250D02*
X153624250Y-81345250D01*
X152796250Y-62864250D02*
X152329250Y-63331250D01*
X144807250Y-83045250D02*
X144734250Y-83118250D01*
X167168749Y-71125000D02*
X164306250Y-71125000D01*
X164096000Y-71335250D02*
X161229250Y-71335250D01*
X148122250Y-83045250D02*
X144807250Y-83045250D01*
X158729250Y-63585250D02*
X158729250Y-66435250D01*
X164306250Y-71125000D02*
X164096000Y-71335250D01*
X161612500Y-92075000D02*
X157643750Y-88106250D01*
X153751250Y-81218250D02*
X155286000Y-81218250D01*
X150322250Y-81345250D02*
X149622250Y-81345250D01*
D29*
%TO.N,Net-(U1-XTAL2)*%
X156258569Y-79128960D02*
X156258569Y-77905931D01*
X156258569Y-77905931D02*
X156329250Y-77835250D01*
X154977250Y-83118250D02*
X156339250Y-81756250D01*
X153751250Y-83118250D02*
X150395250Y-83118250D01*
X150395250Y-83118250D02*
X150322250Y-83045250D01*
X153751250Y-83118250D02*
X154977250Y-83118250D01*
%TO.N,Net-(U1-UCAP)*%
X164306250Y-73025000D02*
X163416500Y-72135250D01*
X163416500Y-72135250D02*
X161229250Y-72135250D01*
D30*
%TO.N,+5V*%
X159543750Y-85725000D02*
X159543750Y-88106250D01*
X159543750Y-81081250D02*
X158631250Y-80168750D01*
X160035250Y-62991250D02*
X160035250Y-62404000D01*
X158631250Y-80168750D02*
X160218750Y-81756250D01*
X160452000Y-68935250D02*
X161229250Y-68935250D01*
X150896250Y-62790000D02*
X150018750Y-61912500D01*
X163512500Y-74441250D02*
X162006500Y-72935250D01*
X160035250Y-62404000D02*
X157956250Y-60325000D01*
X150896250Y-62864250D02*
X150896250Y-62790000D01*
X164133000Y-58935250D02*
X164091250Y-58935250D01*
X162006500Y-72935250D02*
X161229250Y-72935250D01*
X163512500Y-74612500D02*
X163512500Y-74441250D01*
X160218750Y-81756250D02*
X161131250Y-81756250D01*
X159543750Y-66420750D02*
X159529250Y-66435250D01*
X146385250Y-74807250D02*
X146385250Y-73360250D01*
X146385250Y-73360250D02*
X146050000Y-73025000D01*
X164091250Y-58935250D02*
X160035250Y-62991250D01*
X159543750Y-65087500D02*
X159543750Y-66420750D01*
D29*
%TO.N,Row0*%
X122112500Y-68262500D02*
X138112500Y-68262500D01*
X139700000Y-66737500D02*
X139700000Y-69056250D01*
X142081250Y-71437500D02*
X142183500Y-71335250D01*
X142183500Y-71335250D02*
X149829250Y-71335250D01*
X120650000Y-66800000D02*
X122112500Y-68262500D01*
X139637500Y-66737500D02*
X139700000Y-66737500D01*
X138112500Y-68262500D02*
X139637500Y-66737500D01*
X139700000Y-69056250D02*
X142081250Y-71437500D01*
%TO.N,Net-(D1-A)*%
X120650000Y-63500000D02*
X118125000Y-63500000D01*
X118125000Y-63500000D02*
X115212500Y-60587500D01*
%TO.N,Net-(D2-A)*%
X137112500Y-63437500D02*
X134262500Y-60587500D01*
X139700000Y-63437500D02*
X137112500Y-63437500D01*
%TO.N,Row1*%
X120650000Y-85725000D02*
X120650000Y-87312500D01*
X139700000Y-85787500D02*
X140431250Y-85787500D01*
X142081250Y-75406250D02*
X145352250Y-72135250D01*
X120650000Y-87312500D02*
X122237500Y-88900000D01*
X145352250Y-72135250D02*
X149829250Y-72135250D01*
X140431250Y-85787500D02*
X142081250Y-84137500D01*
X142081250Y-84137500D02*
X142081250Y-75406250D01*
X122237500Y-88900000D02*
X136587500Y-88900000D01*
X136587500Y-88900000D02*
X139700000Y-85787500D01*
%TO.N,Net-(D3-A)*%
X118000000Y-82425000D02*
X115212500Y-79637500D01*
X120650000Y-82425000D02*
X118000000Y-82425000D01*
%TO.N,Net-(D4-A)*%
X139700000Y-82487500D02*
X137112500Y-82487500D01*
X137112500Y-82487500D02*
X134262500Y-79637500D01*
%TO.N,VCC*%
X168013000Y-66662500D02*
X166933000Y-65582500D01*
X169138000Y-66662500D02*
X168013000Y-66662500D01*
X166933000Y-65582500D02*
X166933000Y-58935250D01*
%TO.N,Col0*%
X145141500Y-69735250D02*
X149829250Y-69735250D01*
X108902500Y-78827500D02*
X110212500Y-80137500D01*
X143668750Y-68262500D02*
X145141500Y-69735250D01*
%TO.N,Col1*%
X142875000Y-69056250D02*
X144354000Y-70535250D01*
X144354000Y-70535250D02*
X149829250Y-70535250D01*
X129262500Y-80137500D02*
X127952500Y-78827500D01*
%TO.N,Net-(U1-~{RESET})*%
X166425000Y-83418750D02*
X163175000Y-80168750D01*
X160312750Y-80168750D02*
X158729250Y-78585250D01*
X163175000Y-80168750D02*
X160456250Y-80168750D01*
X158729250Y-78585250D02*
X158729250Y-77835250D01*
X160456250Y-80168750D02*
X160312750Y-80168750D01*
D32*
%TO.N,D+*%
X166314750Y-68262500D02*
X165870250Y-68707000D01*
X169138000Y-68262500D02*
X166314750Y-68262500D01*
D29*
%TO.N,Net-(U1-D+)*%
X164045250Y-69317250D02*
X162718750Y-70643750D01*
X162718750Y-70643750D02*
X162610250Y-70535250D01*
X164045250Y-68707000D02*
X164045250Y-69317250D01*
X162610250Y-70535250D02*
X161229250Y-70535250D01*
D32*
%TO.N,D-*%
X169138000Y-67462500D02*
X166681250Y-67462500D01*
X166681250Y-67462500D02*
X165893750Y-66675000D01*
D29*
%TO.N,Net-(U1-D-)*%
X162718750Y-67468750D02*
X162718750Y-69850000D01*
X162604000Y-69735250D02*
X161229250Y-69735250D01*
X163512500Y-66675000D02*
X162718750Y-67468750D01*
X164068750Y-66675000D02*
X163512500Y-66675000D01*
X162718750Y-69850000D02*
X162604000Y-69735250D01*
%TO.N,Net-(U1-~{HWB}{slash}PE2)*%
X147796250Y-68040250D02*
X149734250Y-68040250D01*
X149734250Y-68040250D02*
X149829250Y-68135250D01*
%TD*%
%TA.AperFunction,Conductor*%
%TO.N,GND*%
G36*
X173039366Y-55563113D02*
G01*
X173060469Y-55564389D01*
X173133432Y-55568802D01*
X173329370Y-55581676D01*
X173336475Y-55582558D01*
X173463709Y-55605874D01*
X173624002Y-55637758D01*
X173630311Y-55639364D01*
X173761480Y-55680237D01*
X173909196Y-55730379D01*
X173914706Y-55732549D01*
X174043124Y-55790344D01*
X174180508Y-55858094D01*
X174185150Y-55860636D01*
X174306039Y-55933714D01*
X174308404Y-55935218D01*
X174433675Y-56018920D01*
X174437437Y-56021646D01*
X174549214Y-56109216D01*
X174551848Y-56111399D01*
X174664655Y-56210326D01*
X174667605Y-56213089D01*
X174768162Y-56313643D01*
X174770936Y-56316605D01*
X174869865Y-56429409D01*
X174872057Y-56432052D01*
X174959617Y-56543812D01*
X174962356Y-56547594D01*
X175046058Y-56672858D01*
X175047566Y-56675229D01*
X175120631Y-56796092D01*
X175123179Y-56800746D01*
X175190938Y-56938138D01*
X175248731Y-57066546D01*
X175250904Y-57072065D01*
X175301041Y-57219756D01*
X175341915Y-57350919D01*
X175343532Y-57357272D01*
X175375427Y-57517598D01*
X175398729Y-57644747D01*
X175399612Y-57651873D01*
X175412911Y-57854701D01*
X175418137Y-57941065D01*
X175418250Y-57944810D01*
X175418250Y-63693082D01*
X175398565Y-63760121D01*
X175345761Y-63805876D01*
X175276603Y-63815820D01*
X175213047Y-63786795D01*
X175192676Y-63764207D01*
X175176493Y-63741096D01*
X175009402Y-63574005D01*
X174815830Y-63438465D01*
X174815828Y-63438464D01*
X174708746Y-63388531D01*
X174601663Y-63338597D01*
X174601659Y-63338596D01*
X174601655Y-63338594D01*
X174373413Y-63277438D01*
X174373403Y-63277436D01*
X174196966Y-63262000D01*
X173079034Y-63262000D01*
X172902596Y-63277436D01*
X172902586Y-63277438D01*
X172674344Y-63338594D01*
X172674335Y-63338598D01*
X172460171Y-63438464D01*
X172460169Y-63438465D01*
X172266597Y-63574005D01*
X172099506Y-63741097D01*
X172099501Y-63741104D01*
X171963967Y-63934665D01*
X171963965Y-63934669D01*
X171864098Y-64148835D01*
X171864094Y-64148844D01*
X171802938Y-64377086D01*
X171802936Y-64377096D01*
X171782341Y-64612499D01*
X171782341Y-64612500D01*
X171802936Y-64847903D01*
X171802938Y-64847913D01*
X171864094Y-65076155D01*
X171864096Y-65076159D01*
X171864097Y-65076163D01*
X171911963Y-65178811D01*
X171963964Y-65290328D01*
X171963965Y-65290330D01*
X172099505Y-65483902D01*
X172266597Y-65650994D01*
X172460169Y-65786534D01*
X172460171Y-65786535D01*
X172674337Y-65886403D01*
X172902592Y-65947563D01*
X173079034Y-65963000D01*
X174196966Y-65963000D01*
X174373408Y-65947563D01*
X174601663Y-65886403D01*
X174815829Y-65786535D01*
X175009401Y-65650995D01*
X175176495Y-65483901D01*
X175192675Y-65460794D01*
X175247252Y-65417169D01*
X175316750Y-65409975D01*
X175379105Y-65441498D01*
X175414519Y-65501727D01*
X175418250Y-65531917D01*
X175418250Y-70993082D01*
X175398565Y-71060121D01*
X175345761Y-71105876D01*
X175276603Y-71115820D01*
X175213047Y-71086795D01*
X175192676Y-71064207D01*
X175176493Y-71041096D01*
X175009402Y-70874005D01*
X174815830Y-70738465D01*
X174815828Y-70738464D01*
X174672075Y-70671431D01*
X174601663Y-70638597D01*
X174601659Y-70638596D01*
X174601655Y-70638594D01*
X174373413Y-70577438D01*
X174373403Y-70577436D01*
X174196966Y-70562000D01*
X173079034Y-70562000D01*
X172902596Y-70577436D01*
X172902586Y-70577438D01*
X172674344Y-70638594D01*
X172674335Y-70638598D01*
X172460171Y-70738464D01*
X172460169Y-70738465D01*
X172266597Y-70874005D01*
X172099506Y-71041097D01*
X172099501Y-71041104D01*
X171963967Y-71234665D01*
X171963965Y-71234669D01*
X171864098Y-71448835D01*
X171864094Y-71448844D01*
X171802938Y-71677086D01*
X171802936Y-71677096D01*
X171782341Y-71912499D01*
X171782341Y-71912500D01*
X171802936Y-72147903D01*
X171802938Y-72147913D01*
X171864094Y-72376155D01*
X171864096Y-72376159D01*
X171864097Y-72376163D01*
X171902316Y-72458123D01*
X171963964Y-72590328D01*
X171963965Y-72590330D01*
X172099505Y-72783902D01*
X172266597Y-72950994D01*
X172460169Y-73086534D01*
X172460171Y-73086535D01*
X172674337Y-73186403D01*
X172674343Y-73186404D01*
X172674344Y-73186405D01*
X172729285Y-73201126D01*
X172902592Y-73247563D01*
X173079034Y-73263000D01*
X174196966Y-73263000D01*
X174373408Y-73247563D01*
X174601663Y-73186403D01*
X174815829Y-73086535D01*
X175009401Y-72950995D01*
X175176495Y-72783901D01*
X175192675Y-72760794D01*
X175247252Y-72717169D01*
X175316750Y-72709975D01*
X175379105Y-72741498D01*
X175414519Y-72801727D01*
X175418250Y-72831917D01*
X175418250Y-91279368D01*
X175418137Y-91283114D01*
X175412066Y-91383447D01*
X175399714Y-91572289D01*
X175398830Y-91579425D01*
X175374187Y-91713891D01*
X175343762Y-91866822D01*
X175342145Y-91873175D01*
X175299820Y-92008996D01*
X175251286Y-92151963D01*
X175249113Y-92157481D01*
X175189722Y-92289439D01*
X175123747Y-92423218D01*
X175121198Y-92427873D01*
X175046364Y-92551658D01*
X175044857Y-92554029D01*
X174963151Y-92676306D01*
X174960404Y-92680099D01*
X174870889Y-92794353D01*
X174868697Y-92796996D01*
X174771992Y-92907266D01*
X174769217Y-92910228D01*
X174666498Y-93012946D01*
X174663536Y-93015720D01*
X174553251Y-93112435D01*
X174550608Y-93114627D01*
X174436366Y-93204127D01*
X174432574Y-93206874D01*
X174310265Y-93288597D01*
X174307894Y-93290105D01*
X174184137Y-93364917D01*
X174179483Y-93367466D01*
X174045680Y-93433450D01*
X173913737Y-93492831D01*
X173908218Y-93495004D01*
X173765250Y-93543535D01*
X173629425Y-93585859D01*
X173623071Y-93587476D01*
X173470133Y-93617897D01*
X173335653Y-93642540D01*
X173328527Y-93643424D01*
X173146308Y-93655368D01*
X173077236Y-93659546D01*
X173038538Y-93661887D01*
X173034800Y-93662000D01*
X141411500Y-93662000D01*
X141344461Y-93642315D01*
X141298706Y-93589511D01*
X141287500Y-93538000D01*
X141287500Y-90566620D01*
X165374500Y-90566620D01*
X165374501Y-90566626D01*
X165380908Y-90626233D01*
X165431202Y-90761078D01*
X165431206Y-90761085D01*
X165517452Y-90876294D01*
X165517455Y-90876297D01*
X165632664Y-90962543D01*
X165632671Y-90962547D01*
X165767517Y-91012841D01*
X165767516Y-91012841D01*
X165774444Y-91013585D01*
X165827127Y-91019250D01*
X167022872Y-91019249D01*
X167082483Y-91012841D01*
X167217331Y-90962546D01*
X167332546Y-90876296D01*
X167418796Y-90761081D01*
X167469091Y-90626233D01*
X167475500Y-90566623D01*
X167475499Y-89868750D01*
X169075000Y-89868750D01*
X169075000Y-90566594D01*
X169081401Y-90626122D01*
X169081403Y-90626129D01*
X169131645Y-90760836D01*
X169131649Y-90760843D01*
X169217809Y-90875937D01*
X169217812Y-90875940D01*
X169332906Y-90962100D01*
X169332913Y-90962104D01*
X169467620Y-91012346D01*
X169467627Y-91012348D01*
X169527155Y-91018749D01*
X169527172Y-91018750D01*
X169875000Y-91018750D01*
X169875000Y-89868750D01*
X170375000Y-89868750D01*
X170375000Y-91018750D01*
X170722828Y-91018750D01*
X170722844Y-91018749D01*
X170782372Y-91012348D01*
X170782379Y-91012346D01*
X170917086Y-90962104D01*
X170917093Y-90962100D01*
X171032187Y-90875940D01*
X171032190Y-90875937D01*
X171118350Y-90760843D01*
X171118354Y-90760836D01*
X171168596Y-90626129D01*
X171168598Y-90626122D01*
X171174999Y-90566594D01*
X171175000Y-90566577D01*
X171175000Y-89868750D01*
X170375000Y-89868750D01*
X169875000Y-89868750D01*
X169075000Y-89868750D01*
X167475499Y-89868750D01*
X167475499Y-89368750D01*
X169075000Y-89368750D01*
X169875000Y-89368750D01*
X169875000Y-88218750D01*
X170375000Y-88218750D01*
X170375000Y-89368750D01*
X171175000Y-89368750D01*
X171175000Y-88670922D01*
X171174999Y-88670905D01*
X171168598Y-88611377D01*
X171168596Y-88611370D01*
X171118354Y-88476663D01*
X171118350Y-88476656D01*
X171032190Y-88361562D01*
X171032187Y-88361559D01*
X170917093Y-88275399D01*
X170917086Y-88275395D01*
X170782379Y-88225153D01*
X170782372Y-88225151D01*
X170722844Y-88218750D01*
X170375000Y-88218750D01*
X169875000Y-88218750D01*
X169527155Y-88218750D01*
X169467627Y-88225151D01*
X169467620Y-88225153D01*
X169332913Y-88275395D01*
X169332906Y-88275399D01*
X169217812Y-88361559D01*
X169217809Y-88361562D01*
X169131649Y-88476656D01*
X169131645Y-88476663D01*
X169081403Y-88611370D01*
X169081401Y-88611377D01*
X169075000Y-88670905D01*
X169075000Y-89368750D01*
X167475499Y-89368750D01*
X167475499Y-88670878D01*
X167469091Y-88611267D01*
X167418884Y-88476656D01*
X167418797Y-88476421D01*
X167418793Y-88476414D01*
X167332547Y-88361205D01*
X167332544Y-88361202D01*
X167217335Y-88274956D01*
X167217328Y-88274952D01*
X167082482Y-88224658D01*
X167082483Y-88224658D01*
X167022883Y-88218251D01*
X167022881Y-88218250D01*
X167022873Y-88218250D01*
X167022864Y-88218250D01*
X165827129Y-88218250D01*
X165827123Y-88218251D01*
X165767516Y-88224658D01*
X165632671Y-88274952D01*
X165632664Y-88274956D01*
X165517455Y-88361202D01*
X165517452Y-88361205D01*
X165431206Y-88476414D01*
X165431202Y-88476421D01*
X165380908Y-88611267D01*
X165374501Y-88670866D01*
X165374501Y-88670873D01*
X165374500Y-88670885D01*
X165374500Y-90566620D01*
X141287500Y-90566620D01*
X141287500Y-88356250D01*
X156643751Y-88356250D01*
X156643751Y-88631236D01*
X156654244Y-88733947D01*
X156709391Y-88900369D01*
X156709393Y-88900374D01*
X156801434Y-89049595D01*
X156925404Y-89173565D01*
X157074625Y-89265606D01*
X157074630Y-89265608D01*
X157241052Y-89320755D01*
X157241059Y-89320756D01*
X157343769Y-89331249D01*
X157893750Y-89331249D01*
X157943722Y-89331249D01*
X157943736Y-89331248D01*
X158046447Y-89320755D01*
X158212869Y-89265608D01*
X158212874Y-89265606D01*
X158362095Y-89173565D01*
X158486068Y-89049592D01*
X158487915Y-89046598D01*
X158489719Y-89044974D01*
X158490548Y-89043927D01*
X158490726Y-89044068D01*
X158539860Y-88999871D01*
X158608823Y-88988646D01*
X158672906Y-89016486D01*
X158698993Y-89046591D01*
X158701038Y-89049906D01*
X158825094Y-89173962D01*
X158974416Y-89266064D01*
X159140953Y-89321249D01*
X159243741Y-89331750D01*
X159843758Y-89331749D01*
X159843766Y-89331748D01*
X159843769Y-89331748D01*
X159900052Y-89325998D01*
X159946547Y-89321249D01*
X160113084Y-89266064D01*
X160262406Y-89173962D01*
X160386462Y-89049906D01*
X160478564Y-88900584D01*
X160533749Y-88734047D01*
X160544250Y-88631259D01*
X160544249Y-87581242D01*
X160533749Y-87478453D01*
X160478564Y-87311916D01*
X160386462Y-87162594D01*
X160271068Y-87047200D01*
X160237584Y-86985877D01*
X160234750Y-86959519D01*
X160234750Y-86350942D01*
X160254435Y-86283903D01*
X160266603Y-86267967D01*
X160276280Y-86257219D01*
X160276283Y-86257216D01*
X160370929Y-86093284D01*
X160429424Y-85913256D01*
X160449210Y-85725000D01*
X160429424Y-85536744D01*
X160370929Y-85356716D01*
X160276283Y-85192784D01*
X160149621Y-85052112D01*
X160149620Y-85052111D01*
X159996484Y-84940851D01*
X159996479Y-84940848D01*
X159823557Y-84863857D01*
X159823552Y-84863855D01*
X159677751Y-84832865D01*
X159638396Y-84824500D01*
X159449104Y-84824500D01*
X159416647Y-84831398D01*
X159263947Y-84863855D01*
X159263942Y-84863857D01*
X159091020Y-84940848D01*
X159091015Y-84940851D01*
X158937879Y-85052111D01*
X158811216Y-85192785D01*
X158716571Y-85356715D01*
X158716568Y-85356722D01*
X158681212Y-85465538D01*
X158658076Y-85536744D01*
X158638290Y-85725000D01*
X158658076Y-85913256D01*
X158658077Y-85913259D01*
X158716568Y-86093277D01*
X158716571Y-86093284D01*
X158811216Y-86257215D01*
X158811219Y-86257219D01*
X158820897Y-86267967D01*
X158851129Y-86330957D01*
X158852750Y-86350942D01*
X158852750Y-86959519D01*
X158833065Y-87026558D01*
X158816432Y-87047200D01*
X158701033Y-87162599D01*
X158698991Y-87165911D01*
X158696997Y-87167703D01*
X158696557Y-87168261D01*
X158696461Y-87168185D01*
X158647041Y-87212633D01*
X158578078Y-87223852D01*
X158513997Y-87196005D01*
X158487918Y-87165906D01*
X158486069Y-87162909D01*
X158486066Y-87162905D01*
X158362095Y-87038934D01*
X158212874Y-86946893D01*
X158212869Y-86946891D01*
X158046447Y-86891744D01*
X158046440Y-86891743D01*
X157943736Y-86881250D01*
X157893750Y-86881250D01*
X157893750Y-89331249D01*
X157343769Y-89331249D01*
X157393749Y-89331248D01*
X157393750Y-89331248D01*
X157393750Y-88356250D01*
X156643751Y-88356250D01*
X141287500Y-88356250D01*
X141287500Y-87856250D01*
X156643750Y-87856250D01*
X157393750Y-87856250D01*
X157393750Y-86881250D01*
X157393749Y-86881249D01*
X157343779Y-86881250D01*
X157343761Y-86881251D01*
X157241052Y-86891744D01*
X157074630Y-86946891D01*
X157074625Y-86946893D01*
X156925404Y-87038934D01*
X156801434Y-87162904D01*
X156709393Y-87312125D01*
X156709391Y-87312130D01*
X156654244Y-87478552D01*
X156654243Y-87478559D01*
X156643750Y-87581263D01*
X156643750Y-87856250D01*
X141287500Y-87856250D01*
X141287500Y-85870030D01*
X141307185Y-85802991D01*
X141323816Y-85782352D01*
X142466293Y-84639874D01*
X142478575Y-84630037D01*
X142478394Y-84629818D01*
X142484402Y-84624846D01*
X142484412Y-84624840D01*
X142531927Y-84574241D01*
X142552873Y-84553296D01*
X142557142Y-84547790D01*
X142560926Y-84543359D01*
X142592943Y-84509267D01*
X142602639Y-84491628D01*
X142613323Y-84475361D01*
X142625658Y-84459462D01*
X142644228Y-84416546D01*
X142646784Y-84411327D01*
X142669322Y-84370334D01*
X142674328Y-84350834D01*
X142680632Y-84332424D01*
X142688620Y-84313965D01*
X142688623Y-84313959D01*
X142695937Y-84267780D01*
X142697118Y-84262070D01*
X142708750Y-84216772D01*
X142708750Y-84196635D01*
X142710277Y-84177235D01*
X142713424Y-84157367D01*
X142709025Y-84110829D01*
X142708750Y-84104991D01*
X142708750Y-83368250D01*
X143509251Y-83368250D01*
X143509251Y-83418236D01*
X143519744Y-83520947D01*
X143574891Y-83687369D01*
X143574893Y-83687374D01*
X143666934Y-83836595D01*
X143790904Y-83960565D01*
X143940125Y-84052606D01*
X143940130Y-84052608D01*
X144106552Y-84107755D01*
X144106559Y-84107756D01*
X144209269Y-84118249D01*
X144484249Y-84118249D01*
X144484250Y-84118248D01*
X144484250Y-83368250D01*
X144984250Y-83368250D01*
X144984250Y-84118249D01*
X145259222Y-84118249D01*
X145259236Y-84118248D01*
X145361947Y-84107755D01*
X145528369Y-84052608D01*
X145528374Y-84052606D01*
X145677595Y-83960565D01*
X145801565Y-83836595D01*
X145893606Y-83687374D01*
X145893608Y-83687369D01*
X145948755Y-83520947D01*
X145948756Y-83520940D01*
X145959249Y-83418236D01*
X145959250Y-83418223D01*
X145959250Y-83368250D01*
X144984250Y-83368250D01*
X144484250Y-83368250D01*
X143509251Y-83368250D01*
X142708750Y-83368250D01*
X142708750Y-83295250D01*
X146922250Y-83295250D01*
X146922250Y-83693094D01*
X146928651Y-83752622D01*
X146928653Y-83752629D01*
X146978895Y-83887336D01*
X146978899Y-83887343D01*
X147065059Y-84002437D01*
X147065062Y-84002440D01*
X147180156Y-84088600D01*
X147180163Y-84088604D01*
X147314870Y-84138846D01*
X147314877Y-84138848D01*
X147374405Y-84145249D01*
X147374422Y-84145250D01*
X147872250Y-84145250D01*
X147872250Y-83295250D01*
X146922250Y-83295250D01*
X142708750Y-83295250D01*
X142708750Y-76957250D01*
X145160251Y-76957250D01*
X145160251Y-77007236D01*
X145170744Y-77109947D01*
X145225891Y-77276369D01*
X145225893Y-77276374D01*
X145317934Y-77425595D01*
X145441904Y-77549565D01*
X145591125Y-77641606D01*
X145591130Y-77641608D01*
X145757552Y-77696755D01*
X145757559Y-77696756D01*
X145860269Y-77707249D01*
X146135249Y-77707249D01*
X146135250Y-77707248D01*
X146135250Y-76957250D01*
X146635250Y-76957250D01*
X146635250Y-77707249D01*
X146910222Y-77707249D01*
X146910236Y-77707248D01*
X147012947Y-77696755D01*
X147179369Y-77641608D01*
X147179374Y-77641606D01*
X147328595Y-77549565D01*
X147452565Y-77425595D01*
X147544606Y-77276374D01*
X147544608Y-77276369D01*
X147599755Y-77109947D01*
X147599756Y-77109940D01*
X147610249Y-77007236D01*
X147610250Y-77007223D01*
X147610250Y-76957250D01*
X146635250Y-76957250D01*
X146135250Y-76957250D01*
X145160251Y-76957250D01*
X142708750Y-76957250D01*
X142708750Y-75717530D01*
X142728435Y-75650491D01*
X142745064Y-75629854D01*
X145020944Y-73353973D01*
X145082265Y-73320490D01*
X145151957Y-73325474D01*
X145207890Y-73367346D01*
X145221902Y-73391219D01*
X145222821Y-73393285D01*
X145242747Y-73427797D01*
X145317467Y-73557216D01*
X145444129Y-73697888D01*
X145491796Y-73732520D01*
X145534462Y-73787849D01*
X145540441Y-73857463D01*
X145507836Y-73919258D01*
X145484008Y-73938376D01*
X145441597Y-73964535D01*
X145441593Y-73964538D01*
X145317539Y-74088592D01*
X145225437Y-74237913D01*
X145225435Y-74237918D01*
X145223346Y-74244222D01*
X145170251Y-74404453D01*
X145170251Y-74404454D01*
X145170250Y-74404454D01*
X145159750Y-74507233D01*
X145159750Y-75107251D01*
X145159751Y-75107269D01*
X145170250Y-75210046D01*
X145170251Y-75210049D01*
X145225435Y-75376581D01*
X145225437Y-75376586D01*
X145237813Y-75396651D01*
X145317538Y-75525906D01*
X145441594Y-75649962D01*
X145442452Y-75650491D01*
X145444903Y-75652003D01*
X145446695Y-75653996D01*
X145447261Y-75654443D01*
X145447184Y-75654539D01*
X145491629Y-75703949D01*
X145502853Y-75772911D01*
X145475011Y-75836994D01*
X145444915Y-75863076D01*
X145441910Y-75864929D01*
X145441905Y-75864933D01*
X145317934Y-75988904D01*
X145225893Y-76138125D01*
X145225891Y-76138130D01*
X145170744Y-76304552D01*
X145170743Y-76304559D01*
X145160250Y-76407263D01*
X145160250Y-76457250D01*
X147610249Y-76457250D01*
X147610249Y-76407278D01*
X147610248Y-76407263D01*
X147607999Y-76385250D01*
X148579250Y-76385250D01*
X148579250Y-76458094D01*
X148585651Y-76517622D01*
X148585653Y-76517629D01*
X148635895Y-76652336D01*
X148635899Y-76652343D01*
X148722059Y-76767437D01*
X148722062Y-76767440D01*
X148837156Y-76853600D01*
X148837163Y-76853604D01*
X148971870Y-76903846D01*
X148971877Y-76903848D01*
X149031405Y-76910249D01*
X149031422Y-76910250D01*
X149579250Y-76910250D01*
X149579250Y-76385250D01*
X148579250Y-76385250D01*
X147607999Y-76385250D01*
X147599755Y-76304552D01*
X147544608Y-76138130D01*
X147544606Y-76138125D01*
X147452565Y-75988904D01*
X147328594Y-75864933D01*
X147328591Y-75864931D01*
X147325589Y-75863079D01*
X147323963Y-75861271D01*
X147322927Y-75860452D01*
X147323067Y-75860274D01*
X147278867Y-75811130D01*
X147267647Y-75742167D01*
X147295493Y-75678086D01*
X147325594Y-75652004D01*
X147328906Y-75649962D01*
X147452962Y-75525906D01*
X147545064Y-75376584D01*
X147600249Y-75210047D01*
X147610750Y-75107259D01*
X147610749Y-74507242D01*
X147600249Y-74404453D01*
X147545064Y-74237916D01*
X147452962Y-74088594D01*
X147328906Y-73964538D01*
X147179584Y-73872436D01*
X147179582Y-73872435D01*
X147179580Y-73872434D01*
X147179581Y-73872434D01*
X147161244Y-73866358D01*
X147103800Y-73826585D01*
X147076978Y-73762068D01*
X147076250Y-73748653D01*
X147076250Y-73383001D01*
X147076363Y-73379256D01*
X147080055Y-73318222D01*
X147069031Y-73258068D01*
X147068467Y-73254363D01*
X147067641Y-73247563D01*
X147061098Y-73193668D01*
X147057609Y-73184468D01*
X147051581Y-73162846D01*
X147049807Y-73153165D01*
X147024709Y-73097399D01*
X147023275Y-73093937D01*
X147020468Y-73086535D01*
X147001594Y-73036768D01*
X146996004Y-73028670D01*
X146984975Y-73009115D01*
X146980939Y-73000147D01*
X146980938Y-73000144D01*
X146970476Y-72986791D01*
X146944769Y-72923281D01*
X146942292Y-72899709D01*
X146954863Y-72830979D01*
X147002596Y-72779957D01*
X147065613Y-72762750D01*
X148454750Y-72762750D01*
X148521789Y-72782435D01*
X148567544Y-72835239D01*
X148578750Y-72886750D01*
X148578750Y-73258119D01*
X148578751Y-73258129D01*
X148585617Y-73322001D01*
X148585617Y-73348507D01*
X148585159Y-73352766D01*
X148585159Y-73352767D01*
X148578750Y-73412377D01*
X148578750Y-73412379D01*
X148578750Y-73412383D01*
X148578750Y-74058120D01*
X148578751Y-74058129D01*
X148585617Y-74122001D01*
X148585617Y-74148507D01*
X148585159Y-74152766D01*
X148585159Y-74152767D01*
X148578750Y-74212377D01*
X148578750Y-74212379D01*
X148578750Y-74212383D01*
X148578750Y-74858120D01*
X148578751Y-74858129D01*
X148585617Y-74922001D01*
X148585617Y-74948507D01*
X148585159Y-74952766D01*
X148585159Y-74952767D01*
X148578750Y-75012377D01*
X148578750Y-75012379D01*
X148578750Y-75012383D01*
X148578750Y-75658120D01*
X148578751Y-75658126D01*
X148585869Y-75724342D01*
X148585869Y-75750849D01*
X148579250Y-75812419D01*
X148579250Y-75885250D01*
X148597841Y-75885250D01*
X148664880Y-75904935D01*
X148697105Y-75934936D01*
X148721704Y-75967796D01*
X148749901Y-75988904D01*
X148836914Y-76054043D01*
X148836921Y-76054047D01*
X148971767Y-76104341D01*
X148971766Y-76104341D01*
X148978694Y-76105085D01*
X149031377Y-76110750D01*
X150627122Y-76110749D01*
X150686733Y-76104341D01*
X150821581Y-76054046D01*
X150936796Y-75967796D01*
X150961393Y-75934937D01*
X151017326Y-75893068D01*
X151060659Y-75885250D01*
X151079250Y-75885250D01*
X151079250Y-75812422D01*
X151079249Y-75812410D01*
X151072630Y-75750854D01*
X151072630Y-75724340D01*
X151073340Y-75717735D01*
X151073341Y-75717733D01*
X151079750Y-75658123D01*
X151079749Y-75012378D01*
X151073341Y-74952767D01*
X151073339Y-74952763D01*
X151072882Y-74948505D01*
X151072882Y-74921995D01*
X151073339Y-74917736D01*
X151073341Y-74917733D01*
X151079750Y-74858123D01*
X151079749Y-74212378D01*
X151073341Y-74152767D01*
X151073339Y-74152763D01*
X151072882Y-74148505D01*
X151072882Y-74121995D01*
X151073339Y-74117736D01*
X151073341Y-74117733D01*
X151079750Y-74058123D01*
X151079749Y-73412378D01*
X151073341Y-73352767D01*
X151073339Y-73352763D01*
X151072882Y-73348505D01*
X151072882Y-73321995D01*
X151073339Y-73317736D01*
X151073341Y-73317733D01*
X151079750Y-73258123D01*
X151079749Y-72612378D01*
X151073341Y-72552767D01*
X151073339Y-72552763D01*
X151072882Y-72548505D01*
X151072882Y-72521995D01*
X151073339Y-72517736D01*
X151073341Y-72517733D01*
X151079750Y-72458123D01*
X151079749Y-71812378D01*
X151073341Y-71752767D01*
X151073339Y-71752763D01*
X151072882Y-71748505D01*
X151072882Y-71721995D01*
X151073339Y-71717736D01*
X151073341Y-71717733D01*
X151079750Y-71658123D01*
X151079749Y-71012378D01*
X151073341Y-70952767D01*
X151073339Y-70952763D01*
X151072882Y-70948505D01*
X151072882Y-70921995D01*
X151073339Y-70917736D01*
X151073341Y-70917733D01*
X151079750Y-70858123D01*
X151079749Y-70212378D01*
X151073341Y-70152767D01*
X151073339Y-70152763D01*
X151072882Y-70148505D01*
X151072882Y-70121995D01*
X151073339Y-70117736D01*
X151073341Y-70117733D01*
X151079750Y-70058123D01*
X151079749Y-69412378D01*
X151073341Y-69352767D01*
X151073339Y-69352763D01*
X151072882Y-69348505D01*
X151072882Y-69321995D01*
X151073339Y-69317736D01*
X151073341Y-69317733D01*
X151079750Y-69258123D01*
X151079749Y-68612378D01*
X151073341Y-68552767D01*
X151073339Y-68552763D01*
X151072882Y-68548505D01*
X151072882Y-68521995D01*
X151073339Y-68517736D01*
X151073341Y-68517733D01*
X151079750Y-68458123D01*
X151079749Y-67812378D01*
X151079749Y-67812377D01*
X151079749Y-67809749D01*
X151099433Y-67742710D01*
X151152237Y-67696955D01*
X151203749Y-67685749D01*
X151206368Y-67685749D01*
X151206377Y-67685750D01*
X151852122Y-67685749D01*
X151911733Y-67679341D01*
X151911733Y-67679340D01*
X151918346Y-67678630D01*
X151944857Y-67678631D01*
X152006407Y-67685249D01*
X152006422Y-67685250D01*
X152079250Y-67685250D01*
X152079250Y-67666659D01*
X152098935Y-67599620D01*
X152128941Y-67567391D01*
X152161796Y-67542796D01*
X152229984Y-67451707D01*
X152285917Y-67409838D01*
X152355608Y-67404854D01*
X152416931Y-67438339D01*
X152428511Y-67451702D01*
X152465248Y-67500776D01*
X152496705Y-67542797D01*
X152529559Y-67567391D01*
X152571431Y-67623324D01*
X152579250Y-67666659D01*
X152579250Y-67685250D01*
X152652078Y-67685250D01*
X152652089Y-67685249D01*
X152713645Y-67678630D01*
X152740159Y-67678630D01*
X152746764Y-67679340D01*
X152746767Y-67679341D01*
X152806377Y-67685750D01*
X153452122Y-67685749D01*
X153511733Y-67679341D01*
X153511736Y-67679339D01*
X153515994Y-67678882D01*
X153542504Y-67678882D01*
X153546764Y-67679339D01*
X153546767Y-67679341D01*
X153606377Y-67685750D01*
X154252122Y-67685749D01*
X154311733Y-67679341D01*
X154311736Y-67679339D01*
X154315994Y-67678882D01*
X154342504Y-67678882D01*
X154346764Y-67679339D01*
X154346767Y-67679341D01*
X154406377Y-67685750D01*
X155052122Y-67685749D01*
X155111733Y-67679341D01*
X155111736Y-67679339D01*
X155115994Y-67678882D01*
X155142504Y-67678882D01*
X155146764Y-67679339D01*
X155146767Y-67679341D01*
X155206377Y-67685750D01*
X155852122Y-67685749D01*
X155911733Y-67679341D01*
X155911736Y-67679339D01*
X155915994Y-67678882D01*
X155942504Y-67678882D01*
X155946764Y-67679339D01*
X155946767Y-67679341D01*
X156006377Y-67685750D01*
X156652122Y-67685749D01*
X156711733Y-67679341D01*
X156711736Y-67679339D01*
X156715994Y-67678882D01*
X156742504Y-67678882D01*
X156746764Y-67679339D01*
X156746767Y-67679341D01*
X156806377Y-67685750D01*
X157452122Y-67685749D01*
X157511733Y-67679341D01*
X157511736Y-67679339D01*
X157515994Y-67678882D01*
X157542504Y-67678882D01*
X157546764Y-67679339D01*
X157546767Y-67679341D01*
X157606377Y-67685750D01*
X158252122Y-67685749D01*
X158311733Y-67679341D01*
X158311733Y-67679340D01*
X158318346Y-67678630D01*
X158344857Y-67678631D01*
X158406407Y-67685249D01*
X158406422Y-67685250D01*
X158479250Y-67685250D01*
X158479250Y-67666659D01*
X158498935Y-67599620D01*
X158528941Y-67567391D01*
X158561796Y-67542796D01*
X158629984Y-67451707D01*
X158685917Y-67409838D01*
X158755608Y-67404854D01*
X158816931Y-67438339D01*
X158828511Y-67451702D01*
X158865248Y-67500776D01*
X158896705Y-67542797D01*
X158929559Y-67567391D01*
X158971431Y-67623324D01*
X158979250Y-67666659D01*
X158979250Y-67685250D01*
X159052078Y-67685250D01*
X159052089Y-67685249D01*
X159113645Y-67678630D01*
X159140159Y-67678630D01*
X159146764Y-67679340D01*
X159146767Y-67679341D01*
X159206377Y-67685750D01*
X159852122Y-67685749D01*
X159854750Y-67685749D01*
X159921789Y-67705433D01*
X159967544Y-67758237D01*
X159978750Y-67809749D01*
X159978750Y-68380371D01*
X159959065Y-68447410D01*
X159947566Y-68462597D01*
X159879144Y-68539830D01*
X159879141Y-68539834D01*
X159801158Y-68688419D01*
X159761000Y-68851347D01*
X159761000Y-69019152D01*
X159801158Y-69182080D01*
X159801158Y-69182081D01*
X159801159Y-69182082D01*
X159879142Y-69330666D01*
X159947566Y-69407901D01*
X159977286Y-69471131D01*
X159978750Y-69490126D01*
X159978750Y-70058120D01*
X159978751Y-70058129D01*
X159985617Y-70122001D01*
X159985617Y-70148507D01*
X159985159Y-70152766D01*
X159985159Y-70152767D01*
X159978750Y-70212377D01*
X159978750Y-70212379D01*
X159978750Y-70212383D01*
X159978750Y-70858120D01*
X159978751Y-70858126D01*
X159985869Y-70924342D01*
X159985869Y-70950849D01*
X159979250Y-71012419D01*
X159979250Y-71085250D01*
X159997841Y-71085250D01*
X160064880Y-71104935D01*
X160097105Y-71134936D01*
X160121704Y-71167796D01*
X160121705Y-71167796D01*
X160121706Y-71167798D01*
X160212790Y-71235984D01*
X160254661Y-71291918D01*
X160259645Y-71361609D01*
X160226159Y-71422932D01*
X160212790Y-71434516D01*
X160121706Y-71502701D01*
X160115722Y-71510693D01*
X160097106Y-71535562D01*
X160041174Y-71577432D01*
X159997841Y-71585250D01*
X159979250Y-71585250D01*
X159979250Y-71658094D01*
X159985869Y-71719648D01*
X159985870Y-71746159D01*
X159985159Y-71752764D01*
X159985159Y-71752767D01*
X159978750Y-71812377D01*
X159978750Y-71812384D01*
X159978750Y-71812385D01*
X159978750Y-72458120D01*
X159978751Y-72458129D01*
X159985617Y-72522001D01*
X159985617Y-72548507D01*
X159985159Y-72552766D01*
X159985159Y-72552767D01*
X159978750Y-72612377D01*
X159978750Y-72612379D01*
X159978750Y-72612383D01*
X159978750Y-73258120D01*
X159978751Y-73258129D01*
X159985617Y-73322001D01*
X159985617Y-73348507D01*
X159985159Y-73352766D01*
X159985159Y-73352767D01*
X159978750Y-73412377D01*
X159978750Y-73412379D01*
X159978750Y-73412383D01*
X159978750Y-74058120D01*
X159978751Y-74058129D01*
X159985617Y-74122001D01*
X159985617Y-74148507D01*
X159985159Y-74152766D01*
X159985159Y-74152767D01*
X159978750Y-74212377D01*
X159978750Y-74212379D01*
X159978750Y-74212383D01*
X159978750Y-74858120D01*
X159978751Y-74858129D01*
X159985617Y-74922001D01*
X159985617Y-74948507D01*
X159985159Y-74952766D01*
X159985159Y-74952767D01*
X159978750Y-75012377D01*
X159978750Y-75012379D01*
X159978750Y-75012383D01*
X159978750Y-75658120D01*
X159978751Y-75658129D01*
X159985617Y-75722001D01*
X159985617Y-75748507D01*
X159985159Y-75752766D01*
X159985159Y-75752767D01*
X159978750Y-75812377D01*
X159978750Y-75812379D01*
X159978750Y-75812383D01*
X159978750Y-76460750D01*
X159959065Y-76527789D01*
X159906261Y-76573544D01*
X159854750Y-76584750D01*
X159206379Y-76584750D01*
X159206370Y-76584751D01*
X159142498Y-76591617D01*
X159115992Y-76591617D01*
X159111733Y-76591159D01*
X159052123Y-76584750D01*
X159052114Y-76584750D01*
X158406379Y-76584750D01*
X158406370Y-76584751D01*
X158342498Y-76591617D01*
X158315992Y-76591617D01*
X158311733Y-76591159D01*
X158252123Y-76584750D01*
X158252114Y-76584750D01*
X157606379Y-76584750D01*
X157606375Y-76584751D01*
X157558410Y-76589907D01*
X157546767Y-76591159D01*
X157546766Y-76591159D01*
X157540154Y-76591870D01*
X157513643Y-76591869D01*
X157452092Y-76585250D01*
X157379250Y-76585250D01*
X157379250Y-76603840D01*
X157359565Y-76670879D01*
X157329563Y-76703106D01*
X157296701Y-76727706D01*
X157228516Y-76818790D01*
X157172582Y-76860661D01*
X157102891Y-76865645D01*
X157041568Y-76832159D01*
X157029984Y-76818790D01*
X156961798Y-76727706D01*
X156961796Y-76727705D01*
X156961796Y-76727704D01*
X156928936Y-76703105D01*
X156887067Y-76647171D01*
X156879250Y-76603840D01*
X156879250Y-76585250D01*
X156806416Y-76585250D01*
X156744845Y-76591869D01*
X156718338Y-76591869D01*
X156709068Y-76590872D01*
X156652123Y-76584750D01*
X156652115Y-76584750D01*
X156006379Y-76584750D01*
X156006370Y-76584751D01*
X155942498Y-76591617D01*
X155915992Y-76591617D01*
X155911733Y-76591159D01*
X155852123Y-76584750D01*
X155852114Y-76584750D01*
X155206379Y-76584750D01*
X155206370Y-76584751D01*
X155142498Y-76591617D01*
X155115992Y-76591617D01*
X155111733Y-76591159D01*
X155052123Y-76584750D01*
X155052114Y-76584750D01*
X154406379Y-76584750D01*
X154406370Y-76584751D01*
X154342498Y-76591617D01*
X154315992Y-76591617D01*
X154311733Y-76591159D01*
X154252123Y-76584750D01*
X154252114Y-76584750D01*
X153606379Y-76584750D01*
X153606370Y-76584751D01*
X153542498Y-76591617D01*
X153515992Y-76591617D01*
X153511733Y-76591159D01*
X153452123Y-76584750D01*
X153452114Y-76584750D01*
X152806379Y-76584750D01*
X152806370Y-76584751D01*
X152742498Y-76591617D01*
X152715992Y-76591617D01*
X152711733Y-76591159D01*
X152652123Y-76584750D01*
X152652114Y-76584750D01*
X152006379Y-76584750D01*
X152006370Y-76584751D01*
X151942498Y-76591617D01*
X151915992Y-76591617D01*
X151911733Y-76591159D01*
X151852123Y-76584750D01*
X151852116Y-76584750D01*
X151203250Y-76584750D01*
X151136211Y-76565065D01*
X151090456Y-76512261D01*
X151079250Y-76460750D01*
X151079250Y-76385250D01*
X150079250Y-76385250D01*
X150079250Y-76910250D01*
X150629750Y-76910250D01*
X150696789Y-76929935D01*
X150742544Y-76982739D01*
X150753750Y-77034250D01*
X150753751Y-78623500D01*
X150734066Y-78690539D01*
X150681263Y-78736294D01*
X150629751Y-78747500D01*
X146660467Y-78747500D01*
X146644819Y-78745772D01*
X146644793Y-78746054D01*
X146637025Y-78745319D01*
X146567654Y-78747500D01*
X146538021Y-78747500D01*
X146531107Y-78748373D01*
X146525290Y-78748830D01*
X146478558Y-78750299D01*
X146478554Y-78750300D01*
X146459222Y-78755916D01*
X146440182Y-78759859D01*
X146420212Y-78762382D01*
X146420208Y-78762383D01*
X146376737Y-78779594D01*
X146371210Y-78781486D01*
X146326312Y-78794530D01*
X146326305Y-78794533D01*
X146308980Y-78804779D01*
X146291510Y-78813337D01*
X146272798Y-78820745D01*
X146234963Y-78848233D01*
X146230080Y-78851440D01*
X146189846Y-78875234D01*
X146175606Y-78889474D01*
X146160820Y-78902102D01*
X146144533Y-78913936D01*
X146144532Y-78913936D01*
X146114727Y-78949963D01*
X146110795Y-78954285D01*
X144883648Y-80181431D01*
X144822325Y-80214916D01*
X144795967Y-80217750D01*
X144209248Y-80217750D01*
X144209230Y-80217751D01*
X144106453Y-80228250D01*
X144106450Y-80228251D01*
X143939918Y-80283435D01*
X143939913Y-80283437D01*
X143790592Y-80375539D01*
X143666539Y-80499592D01*
X143574437Y-80648913D01*
X143574435Y-80648918D01*
X143551731Y-80717434D01*
X143519251Y-80815453D01*
X143519251Y-80815454D01*
X143519250Y-80815454D01*
X143508750Y-80918233D01*
X143508750Y-81518251D01*
X143508751Y-81518269D01*
X143519250Y-81621046D01*
X143519251Y-81621049D01*
X143574435Y-81787581D01*
X143574437Y-81787586D01*
X143586694Y-81807458D01*
X143666538Y-81936906D01*
X143790594Y-82060962D01*
X143792950Y-82062415D01*
X143793903Y-82063003D01*
X143795695Y-82064996D01*
X143796261Y-82065443D01*
X143796184Y-82065539D01*
X143840629Y-82114949D01*
X143851853Y-82183911D01*
X143824011Y-82247994D01*
X143793915Y-82274076D01*
X143790910Y-82275929D01*
X143790905Y-82275933D01*
X143666934Y-82399904D01*
X143574893Y-82549125D01*
X143574891Y-82549130D01*
X143519744Y-82715552D01*
X143519743Y-82715559D01*
X143509250Y-82818263D01*
X143509250Y-82868250D01*
X145959249Y-82868250D01*
X145959249Y-82818278D01*
X145959248Y-82818263D01*
X145948755Y-82715552D01*
X145893608Y-82549130D01*
X145893606Y-82549125D01*
X145801565Y-82399904D01*
X145677594Y-82275933D01*
X145677591Y-82275931D01*
X145674589Y-82274079D01*
X145672963Y-82272271D01*
X145671927Y-82271452D01*
X145672067Y-82271274D01*
X145627867Y-82222130D01*
X145616647Y-82153167D01*
X145644493Y-82089086D01*
X145674594Y-82063004D01*
X145677906Y-82060962D01*
X145729799Y-82009069D01*
X145791122Y-81975584D01*
X145817480Y-81972750D01*
X146812232Y-81972750D01*
X146879271Y-81992435D01*
X146925026Y-82045239D01*
X146928414Y-82053417D01*
X146965418Y-82152631D01*
X146970402Y-82222323D01*
X146965418Y-82239296D01*
X146928653Y-82337867D01*
X146928651Y-82337877D01*
X146922250Y-82397405D01*
X146922250Y-82795250D01*
X148248250Y-82795250D01*
X148315289Y-82814935D01*
X148361044Y-82867739D01*
X148372250Y-82919250D01*
X148372250Y-84145250D01*
X148870078Y-84145250D01*
X148870094Y-84145249D01*
X148929622Y-84138848D01*
X148929629Y-84138846D01*
X149064336Y-84088604D01*
X149064339Y-84088602D01*
X149147521Y-84026332D01*
X149212985Y-84001914D01*
X149281258Y-84016765D01*
X149296137Y-84026327D01*
X149379326Y-84088602D01*
X149379918Y-84089045D01*
X149379921Y-84089047D01*
X149514767Y-84139341D01*
X149514766Y-84139341D01*
X149521694Y-84140085D01*
X149574377Y-84145750D01*
X151070122Y-84145749D01*
X151129733Y-84139341D01*
X151264581Y-84089046D01*
X151379796Y-84002796D01*
X151466046Y-83887581D01*
X151484947Y-83836906D01*
X151488859Y-83826417D01*
X151530730Y-83770483D01*
X151596194Y-83746066D01*
X151605041Y-83745750D01*
X152558106Y-83745750D01*
X152625145Y-83765435D01*
X152663644Y-83804653D01*
X152683538Y-83836906D01*
X152807594Y-83960962D01*
X152956916Y-84053064D01*
X153123453Y-84108249D01*
X153226241Y-84118750D01*
X154276258Y-84118749D01*
X154276266Y-84118748D01*
X154276269Y-84118748D01*
X154353790Y-84110829D01*
X154379047Y-84108249D01*
X154545584Y-84053064D01*
X154694906Y-83960962D01*
X154818962Y-83836906D01*
X154837973Y-83806082D01*
X154889917Y-83759361D01*
X154939614Y-83747242D01*
X154981845Y-83745915D01*
X154987111Y-83745750D01*
X155016723Y-83745750D01*
X155016726Y-83745750D01*
X155023628Y-83744877D01*
X155029440Y-83744419D01*
X155076193Y-83742951D01*
X155095522Y-83737334D01*
X155114578Y-83733387D01*
X155134543Y-83730866D01*
X155178020Y-83713651D01*
X155183526Y-83711766D01*
X155228441Y-83698718D01*
X155245765Y-83688471D01*
X155263233Y-83679913D01*
X155281953Y-83672503D01*
X155319792Y-83645009D01*
X155324641Y-83641824D01*
X155364906Y-83618013D01*
X155379147Y-83603770D01*
X155393928Y-83591147D01*
X155410217Y-83579313D01*
X155410219Y-83579309D01*
X155410221Y-83579309D01*
X155422095Y-83564953D01*
X155440026Y-83543278D01*
X155443939Y-83538978D01*
X156289850Y-82693069D01*
X156351173Y-82659584D01*
X156377531Y-82656750D01*
X156433894Y-82656750D01*
X156433896Y-82656750D01*
X156619053Y-82617394D01*
X156791980Y-82540401D01*
X156945121Y-82429138D01*
X157071783Y-82288466D01*
X157166429Y-82124534D01*
X157224924Y-81944506D01*
X157244710Y-81756250D01*
X157224924Y-81567994D01*
X157166429Y-81387966D01*
X157071783Y-81224034D01*
X156945121Y-81083362D01*
X156945120Y-81083361D01*
X156791984Y-80972101D01*
X156791979Y-80972098D01*
X156619057Y-80895107D01*
X156619052Y-80895105D01*
X156473251Y-80864115D01*
X156433896Y-80855750D01*
X156244604Y-80855750D01*
X156212147Y-80862648D01*
X156059447Y-80895105D01*
X156059442Y-80895107D01*
X155886520Y-80972098D01*
X155886515Y-80972101D01*
X155733379Y-81083361D01*
X155606716Y-81224035D01*
X155512071Y-81387965D01*
X155512068Y-81387972D01*
X155468273Y-81522761D01*
X155453576Y-81567994D01*
X155448000Y-81621047D01*
X155436261Y-81732739D01*
X155409676Y-81797353D01*
X155400621Y-81807458D01*
X154901405Y-82306675D01*
X154840082Y-82340160D01*
X154770391Y-82335176D01*
X154726043Y-82306675D01*
X154694907Y-82275539D01*
X154694906Y-82275538D01*
X154691592Y-82273493D01*
X154689796Y-82271498D01*
X154689239Y-82271057D01*
X154689314Y-82270961D01*
X154644868Y-82221547D01*
X154633647Y-82152584D01*
X154661490Y-82088502D01*
X154691598Y-82062415D01*
X154694592Y-82060568D01*
X154818565Y-81936595D01*
X154910606Y-81787374D01*
X154910608Y-81787369D01*
X154965755Y-81620947D01*
X154965756Y-81620940D01*
X154976249Y-81518236D01*
X154976250Y-81518223D01*
X154976250Y-81468250D01*
X152526251Y-81468250D01*
X152526251Y-81518236D01*
X152536744Y-81620947D01*
X152591891Y-81787369D01*
X152591893Y-81787374D01*
X152683934Y-81936595D01*
X152807905Y-82060566D01*
X152807909Y-82060569D01*
X152810906Y-82062418D01*
X152812529Y-82064222D01*
X152813573Y-82065048D01*
X152813431Y-82065226D01*
X152857631Y-82114366D01*
X152868852Y-82183329D01*
X152841009Y-82247411D01*
X152810911Y-82273491D01*
X152807599Y-82275533D01*
X152807593Y-82275538D01*
X152683539Y-82399592D01*
X152683537Y-82399595D01*
X152663644Y-82431847D01*
X152611696Y-82478572D01*
X152558106Y-82490750D01*
X151644171Y-82490750D01*
X151577132Y-82471065D01*
X151531377Y-82418261D01*
X151520881Y-82380002D01*
X151516341Y-82337766D01*
X151479081Y-82237868D01*
X151474097Y-82168177D01*
X151479081Y-82151201D01*
X151515847Y-82052626D01*
X151515848Y-82052622D01*
X151522249Y-81993094D01*
X151522250Y-81993077D01*
X151522250Y-81595250D01*
X150196250Y-81595250D01*
X150129211Y-81575565D01*
X150083456Y-81522761D01*
X150072250Y-81471250D01*
X150072250Y-81219250D01*
X150091935Y-81152211D01*
X150144739Y-81106456D01*
X150196250Y-81095250D01*
X151522250Y-81095250D01*
X151522250Y-80697422D01*
X151522249Y-80697405D01*
X151515848Y-80637877D01*
X151515846Y-80637870D01*
X151465604Y-80503163D01*
X151465600Y-80503156D01*
X151379440Y-80388062D01*
X151379437Y-80388059D01*
X151264343Y-80301899D01*
X151264336Y-80301895D01*
X151129629Y-80251653D01*
X151129622Y-80251651D01*
X151112300Y-80249789D01*
X151047749Y-80223051D01*
X151007901Y-80165658D01*
X151005408Y-80095833D01*
X151041061Y-80035744D01*
X151103541Y-80004470D01*
X151125556Y-80002500D01*
X153037888Y-80002500D01*
X153104927Y-80022185D01*
X153150682Y-80074989D01*
X153160626Y-80144147D01*
X153131601Y-80207703D01*
X153076892Y-80244206D01*
X152957130Y-80283891D01*
X152957125Y-80283893D01*
X152807904Y-80375934D01*
X152683934Y-80499904D01*
X152591893Y-80649125D01*
X152591891Y-80649130D01*
X152536744Y-80815552D01*
X152536743Y-80815559D01*
X152526250Y-80918263D01*
X152526250Y-80968250D01*
X154976249Y-80968250D01*
X154976249Y-80918278D01*
X154976248Y-80918263D01*
X154965755Y-80815552D01*
X154910608Y-80649130D01*
X154910606Y-80649125D01*
X154818565Y-80499904D01*
X154694595Y-80375934D01*
X154545374Y-80283893D01*
X154545369Y-80283891D01*
X154425606Y-80244206D01*
X154368161Y-80204433D01*
X154341338Y-80139918D01*
X154353653Y-80071142D01*
X154401196Y-80019942D01*
X154464610Y-80002500D01*
X155515864Y-80002500D01*
X155535263Y-80004027D01*
X155555133Y-80007174D01*
X155601671Y-80002774D01*
X155607508Y-80002500D01*
X155614476Y-80002500D01*
X155643888Y-79998784D01*
X155712973Y-79992254D01*
X155712978Y-79992251D01*
X155720588Y-79990551D01*
X155720650Y-79990830D01*
X155724806Y-79989833D01*
X155724735Y-79989556D01*
X155732287Y-79987616D01*
X155732293Y-79987616D01*
X155780299Y-79968608D01*
X155796839Y-79962060D01*
X155806285Y-79958659D01*
X155815699Y-79955269D01*
X155885442Y-79951080D01*
X155908134Y-79958656D01*
X155978766Y-79990104D01*
X156163923Y-80029460D01*
X156163924Y-80029460D01*
X156353213Y-80029460D01*
X156353215Y-80029460D01*
X156538372Y-79990104D01*
X156711299Y-79913111D01*
X156864440Y-79801848D01*
X156991102Y-79661176D01*
X157085748Y-79497244D01*
X157144243Y-79317216D01*
X157156952Y-79196286D01*
X157183536Y-79131674D01*
X157240834Y-79091689D01*
X157280273Y-79085250D01*
X157452078Y-79085250D01*
X157452089Y-79085249D01*
X157513645Y-79078630D01*
X157540159Y-79078630D01*
X157546764Y-79079340D01*
X157546767Y-79079341D01*
X157606377Y-79085750D01*
X157655231Y-79085749D01*
X157722268Y-79105432D01*
X157768024Y-79158235D01*
X157777969Y-79227394D01*
X157760770Y-79274845D01*
X157683940Y-79399409D01*
X157683936Y-79399416D01*
X157628751Y-79565953D01*
X157628751Y-79565954D01*
X157628750Y-79565954D01*
X157618250Y-79668733D01*
X157618250Y-80668751D01*
X157618251Y-80668769D01*
X157628750Y-80771546D01*
X157628751Y-80771549D01*
X157656653Y-80855750D01*
X157683936Y-80938084D01*
X157776038Y-81087406D01*
X157900094Y-81211462D01*
X158049416Y-81303564D01*
X158215953Y-81358749D01*
X158318741Y-81369250D01*
X158803165Y-81369249D01*
X158870204Y-81388933D01*
X158890846Y-81405568D01*
X159714070Y-82228792D01*
X159716606Y-82231486D01*
X159757167Y-82277270D01*
X159807515Y-82312021D01*
X159810507Y-82314223D01*
X159827881Y-82327835D01*
X159858640Y-82351935D01*
X159858643Y-82351937D01*
X159858644Y-82351937D01*
X159858645Y-82351938D01*
X159867616Y-82355975D01*
X159887161Y-82366998D01*
X159895268Y-82372594D01*
X159895269Y-82372594D01*
X159895270Y-82372595D01*
X159895272Y-82372596D01*
X159914801Y-82380002D01*
X159952458Y-82394283D01*
X159955901Y-82395710D01*
X160011665Y-82420807D01*
X160021346Y-82422581D01*
X160042968Y-82428609D01*
X160052166Y-82432097D01*
X160052167Y-82432098D01*
X160068970Y-82434138D01*
X160112873Y-82439468D01*
X160116568Y-82440031D01*
X160144405Y-82445132D01*
X160176722Y-82451055D01*
X160176722Y-82451054D01*
X160176723Y-82451055D01*
X160237758Y-82447363D01*
X160241503Y-82447250D01*
X160510018Y-82447250D01*
X160577057Y-82466935D01*
X160582903Y-82470932D01*
X160678515Y-82540398D01*
X160678520Y-82540401D01*
X160851442Y-82617392D01*
X160851447Y-82617394D01*
X161036604Y-82656750D01*
X161036605Y-82656750D01*
X161225894Y-82656750D01*
X161225896Y-82656750D01*
X161411053Y-82617394D01*
X161583980Y-82540401D01*
X161737121Y-82429138D01*
X161863783Y-82288466D01*
X161958429Y-82124534D01*
X162016924Y-81944506D01*
X162036710Y-81756250D01*
X162016924Y-81567994D01*
X161958429Y-81387966D01*
X161863783Y-81224034D01*
X161737121Y-81083362D01*
X161650691Y-81020567D01*
X161608027Y-80965238D01*
X161602048Y-80895625D01*
X161634654Y-80833830D01*
X161695493Y-80799472D01*
X161723578Y-80796250D01*
X162863719Y-80796250D01*
X162930758Y-80815935D01*
X162951400Y-80832569D01*
X165338181Y-83219350D01*
X165371666Y-83280673D01*
X165374500Y-83307031D01*
X165374500Y-84366620D01*
X165374501Y-84366626D01*
X165380908Y-84426233D01*
X165431202Y-84561078D01*
X165431206Y-84561085D01*
X165517452Y-84676294D01*
X165517455Y-84676297D01*
X165632664Y-84762543D01*
X165632671Y-84762547D01*
X165767517Y-84812841D01*
X165767516Y-84812841D01*
X165774444Y-84813585D01*
X165827127Y-84819250D01*
X167022872Y-84819249D01*
X167082483Y-84812841D01*
X167217331Y-84762546D01*
X167332546Y-84676296D01*
X167418796Y-84561081D01*
X167469091Y-84426233D01*
X167475500Y-84366623D01*
X167475500Y-84366620D01*
X169074500Y-84366620D01*
X169074501Y-84366626D01*
X169080908Y-84426233D01*
X169131202Y-84561078D01*
X169131206Y-84561085D01*
X169217452Y-84676294D01*
X169217455Y-84676297D01*
X169332664Y-84762543D01*
X169332671Y-84762547D01*
X169467517Y-84812841D01*
X169467516Y-84812841D01*
X169474444Y-84813585D01*
X169527127Y-84819250D01*
X170722872Y-84819249D01*
X170782483Y-84812841D01*
X170917331Y-84762546D01*
X171032546Y-84676296D01*
X171118796Y-84561081D01*
X171169091Y-84426233D01*
X171175500Y-84366623D01*
X171175499Y-82470878D01*
X171169091Y-82411267D01*
X171164737Y-82399594D01*
X171118797Y-82276421D01*
X171118793Y-82276414D01*
X171032547Y-82161205D01*
X171032544Y-82161202D01*
X170917335Y-82074956D01*
X170917328Y-82074952D01*
X170782482Y-82024658D01*
X170782483Y-82024658D01*
X170722883Y-82018251D01*
X170722881Y-82018250D01*
X170722873Y-82018250D01*
X170722864Y-82018250D01*
X169527129Y-82018250D01*
X169527123Y-82018251D01*
X169467516Y-82024658D01*
X169332671Y-82074952D01*
X169332664Y-82074956D01*
X169217455Y-82161202D01*
X169217452Y-82161205D01*
X169131206Y-82276414D01*
X169131202Y-82276421D01*
X169080908Y-82411267D01*
X169077040Y-82447250D01*
X169074501Y-82470873D01*
X169074500Y-82470885D01*
X169074500Y-84366620D01*
X167475500Y-84366620D01*
X167475499Y-82470878D01*
X167469091Y-82411267D01*
X167464737Y-82399594D01*
X167418797Y-82276421D01*
X167418793Y-82276414D01*
X167332547Y-82161205D01*
X167332544Y-82161202D01*
X167217335Y-82074956D01*
X167217328Y-82074952D01*
X167082482Y-82024658D01*
X167082483Y-82024658D01*
X167022883Y-82018251D01*
X167022881Y-82018250D01*
X167022873Y-82018250D01*
X167022865Y-82018250D01*
X165963281Y-82018250D01*
X165896242Y-81998565D01*
X165875600Y-81981931D01*
X163677376Y-79783707D01*
X163667531Y-79771418D01*
X163667313Y-79771599D01*
X163662340Y-79765588D01*
X163611741Y-79718072D01*
X163601268Y-79707599D01*
X163590797Y-79697127D01*
X163585296Y-79692861D01*
X163580848Y-79689062D01*
X163546768Y-79657058D01*
X163546763Y-79657054D01*
X163529122Y-79647356D01*
X163512857Y-79636672D01*
X163496963Y-79624343D01*
X163496962Y-79624342D01*
X163481804Y-79617782D01*
X163454054Y-79605773D01*
X163448807Y-79603203D01*
X163407837Y-79580679D01*
X163407828Y-79580676D01*
X163388334Y-79575670D01*
X163369933Y-79569370D01*
X163351459Y-79561376D01*
X163351452Y-79561374D01*
X163305287Y-79554063D01*
X163299563Y-79552878D01*
X163254279Y-79541250D01*
X163254272Y-79541250D01*
X163234142Y-79541250D01*
X163214743Y-79539723D01*
X163194868Y-79536575D01*
X163194867Y-79536575D01*
X163148321Y-79540975D01*
X163142483Y-79541250D01*
X161540104Y-79541250D01*
X161473065Y-79521565D01*
X161427310Y-79468761D01*
X161422398Y-79456254D01*
X161403564Y-79399416D01*
X161311462Y-79250094D01*
X161187406Y-79126038D01*
X161038084Y-79033936D01*
X160871547Y-78978751D01*
X160871545Y-78978750D01*
X160768766Y-78968250D01*
X160374173Y-78968250D01*
X160307134Y-78948565D01*
X160261379Y-78895761D01*
X160251435Y-78826603D01*
X160257991Y-78800917D01*
X160272363Y-78762383D01*
X160298341Y-78692733D01*
X160304750Y-78633123D01*
X160304749Y-77037378D01*
X160304749Y-77037377D01*
X160304749Y-77034749D01*
X160324434Y-76967710D01*
X160377237Y-76921955D01*
X160428749Y-76910749D01*
X160431368Y-76910749D01*
X160431377Y-76910750D01*
X162027122Y-76910749D01*
X162086733Y-76904341D01*
X162221581Y-76854046D01*
X162336796Y-76767796D01*
X162423046Y-76652581D01*
X162473341Y-76517733D01*
X162479750Y-76458123D01*
X162479749Y-75812378D01*
X162473341Y-75752767D01*
X162473339Y-75752763D01*
X162472882Y-75748505D01*
X162472882Y-75721995D01*
X162473339Y-75717736D01*
X162473341Y-75717733D01*
X162479750Y-75658123D01*
X162479749Y-75087495D01*
X162499433Y-75020457D01*
X162552237Y-74974702D01*
X162621396Y-74964758D01*
X162684952Y-74993783D01*
X162711133Y-75025493D01*
X162771400Y-75129878D01*
X162779967Y-75144716D01*
X162906629Y-75285388D01*
X163059765Y-75396648D01*
X163059770Y-75396651D01*
X163232692Y-75473642D01*
X163232697Y-75473644D01*
X163417854Y-75513000D01*
X163417855Y-75513000D01*
X163607144Y-75513000D01*
X163607146Y-75513000D01*
X163792303Y-75473644D01*
X163965230Y-75396651D01*
X164118371Y-75285388D01*
X164245033Y-75144716D01*
X164339679Y-74980784D01*
X164398174Y-74800756D01*
X164417960Y-74612500D01*
X164398174Y-74424244D01*
X164339679Y-74244216D01*
X164320788Y-74211497D01*
X164304318Y-74143598D01*
X164327170Y-74077571D01*
X164382092Y-74034381D01*
X164428177Y-74025499D01*
X164831252Y-74025499D01*
X164831258Y-74025499D01*
X164934047Y-74014999D01*
X165100584Y-73959814D01*
X165249906Y-73867712D01*
X165373962Y-73743656D01*
X165466064Y-73594334D01*
X165521249Y-73427797D01*
X165531750Y-73325009D01*
X165531749Y-72724992D01*
X165521249Y-72622203D01*
X165466064Y-72455666D01*
X165373962Y-72306344D01*
X165249906Y-72182288D01*
X165246592Y-72180243D01*
X165244796Y-72178248D01*
X165244239Y-72177807D01*
X165244314Y-72177711D01*
X165199868Y-72128297D01*
X165188647Y-72059334D01*
X165216490Y-71995252D01*
X165246598Y-71969165D01*
X165249592Y-71967318D01*
X165304410Y-71912500D01*
X167282341Y-71912500D01*
X167302936Y-72147903D01*
X167302938Y-72147913D01*
X167364094Y-72376155D01*
X167364096Y-72376159D01*
X167364097Y-72376163D01*
X167402316Y-72458123D01*
X167463964Y-72590328D01*
X167463965Y-72590330D01*
X167599505Y-72783902D01*
X167766597Y-72950994D01*
X167960169Y-73086534D01*
X167960171Y-73086535D01*
X168174337Y-73186403D01*
X168174343Y-73186404D01*
X168174344Y-73186405D01*
X168229285Y-73201126D01*
X168402592Y-73247563D01*
X168579034Y-73263000D01*
X169696966Y-73263000D01*
X169873408Y-73247563D01*
X170101663Y-73186403D01*
X170315829Y-73086535D01*
X170509401Y-72950995D01*
X170676495Y-72783901D01*
X170812035Y-72590330D01*
X170911903Y-72376163D01*
X170973063Y-72147908D01*
X170993659Y-71912500D01*
X170973063Y-71677092D01*
X170911903Y-71448837D01*
X170812035Y-71234671D01*
X170812034Y-71234669D01*
X170676494Y-71041097D01*
X170509402Y-70874005D01*
X170404695Y-70800689D01*
X170361070Y-70746112D01*
X170353876Y-70676614D01*
X170385399Y-70614259D01*
X170432486Y-70582932D01*
X170505084Y-70555855D01*
X170505093Y-70555850D01*
X170620187Y-70469690D01*
X170620190Y-70469687D01*
X170706350Y-70354593D01*
X170706354Y-70354586D01*
X170756596Y-70219879D01*
X170756598Y-70219872D01*
X170762999Y-70160344D01*
X170763000Y-70160327D01*
X170763000Y-70112500D01*
X167513000Y-70112500D01*
X167513000Y-70160344D01*
X167519401Y-70219872D01*
X167519403Y-70219879D01*
X167569645Y-70354586D01*
X167569649Y-70354593D01*
X167655809Y-70469687D01*
X167655812Y-70469690D01*
X167770906Y-70555850D01*
X167770915Y-70555855D01*
X167843513Y-70582932D01*
X167899447Y-70624803D01*
X167923865Y-70690267D01*
X167909014Y-70758540D01*
X167871305Y-70800689D01*
X167766594Y-70874008D01*
X167599506Y-71041097D01*
X167599501Y-71041104D01*
X167463967Y-71234665D01*
X167463965Y-71234669D01*
X167364098Y-71448835D01*
X167364094Y-71448844D01*
X167302938Y-71677086D01*
X167302936Y-71677096D01*
X167282341Y-71912499D01*
X167282341Y-71912500D01*
X165304410Y-71912500D01*
X165373565Y-71843345D01*
X165465606Y-71694124D01*
X165465608Y-71694119D01*
X165520755Y-71527697D01*
X165520756Y-71527690D01*
X165531249Y-71424986D01*
X165531250Y-71424973D01*
X165531250Y-71375000D01*
X164180250Y-71375000D01*
X164113211Y-71355315D01*
X164067456Y-71302511D01*
X164056250Y-71251000D01*
X164056250Y-70999000D01*
X164075935Y-70931961D01*
X164128739Y-70886206D01*
X164180250Y-70875000D01*
X165531249Y-70875000D01*
X165531249Y-70825028D01*
X165531248Y-70825013D01*
X165520755Y-70722302D01*
X165465608Y-70555880D01*
X165465606Y-70555875D01*
X165373565Y-70406654D01*
X165249595Y-70282684D01*
X165100374Y-70190643D01*
X165100369Y-70190641D01*
X164933947Y-70135494D01*
X164933940Y-70135493D01*
X164831236Y-70125000D01*
X164540910Y-70125000D01*
X164473871Y-70105315D01*
X164428116Y-70052511D01*
X164418172Y-69983353D01*
X164447197Y-69919797D01*
X164501906Y-69883294D01*
X164506865Y-69881650D01*
X164627084Y-69841814D01*
X164776406Y-69749712D01*
X164870069Y-69656049D01*
X164931392Y-69622564D01*
X165001084Y-69627548D01*
X165045431Y-69656049D01*
X165139094Y-69749712D01*
X165288416Y-69841814D01*
X165454953Y-69896999D01*
X165557741Y-69907500D01*
X166182758Y-69907499D01*
X166182766Y-69907498D01*
X166182769Y-69907498D01*
X166239052Y-69901748D01*
X166285547Y-69896999D01*
X166452084Y-69841814D01*
X166601406Y-69749712D01*
X166725462Y-69625656D01*
X166817564Y-69476334D01*
X166872749Y-69309797D01*
X166883250Y-69207009D01*
X166883250Y-68987000D01*
X166902935Y-68919961D01*
X166955739Y-68874206D01*
X167007250Y-68863000D01*
X167388500Y-68863000D01*
X167455539Y-68882685D01*
X167501294Y-68935489D01*
X167512500Y-68987000D01*
X167512500Y-69360369D01*
X167512501Y-69360376D01*
X167518909Y-69419987D01*
X167520692Y-69427531D01*
X167519438Y-69427827D01*
X167523856Y-69489569D01*
X167519864Y-69503164D01*
X167519401Y-69505124D01*
X167513000Y-69564655D01*
X167513000Y-69612500D01*
X167550306Y-69612500D01*
X167617345Y-69632185D01*
X167649570Y-69662186D01*
X167655454Y-69670046D01*
X167655455Y-69670046D01*
X167655456Y-69670048D01*
X167770664Y-69756293D01*
X167770671Y-69756297D01*
X167905517Y-69806591D01*
X167905516Y-69806591D01*
X167912444Y-69807335D01*
X167965127Y-69813000D01*
X170310872Y-69812999D01*
X170370483Y-69806591D01*
X170505331Y-69756296D01*
X170620546Y-69670046D01*
X170626428Y-69662187D01*
X170682361Y-69620318D01*
X170725694Y-69612500D01*
X170763000Y-69612500D01*
X170763000Y-69564672D01*
X170762999Y-69564655D01*
X170756598Y-69505127D01*
X170754814Y-69497576D01*
X170756459Y-69497187D01*
X170752143Y-69436861D01*
X170757058Y-69420119D01*
X170757089Y-69419989D01*
X170757089Y-69419988D01*
X170757091Y-69419983D01*
X170763500Y-69360373D01*
X170763499Y-68764628D01*
X170757091Y-68705017D01*
X170757090Y-68705015D01*
X170757090Y-68705012D01*
X170755308Y-68697469D01*
X170756773Y-68697122D01*
X170752409Y-68636151D01*
X170756819Y-68621133D01*
X170757089Y-68619988D01*
X170757088Y-68619988D01*
X170757091Y-68619983D01*
X170763500Y-68560373D01*
X170763499Y-67964628D01*
X170757091Y-67905017D01*
X170757090Y-67905015D01*
X170757090Y-67905012D01*
X170755308Y-67897469D01*
X170756773Y-67897122D01*
X170752409Y-67836151D01*
X170756819Y-67821133D01*
X170757089Y-67819988D01*
X170757088Y-67819988D01*
X170757091Y-67819983D01*
X170763500Y-67760373D01*
X170763499Y-67164628D01*
X170757091Y-67105017D01*
X170757090Y-67105015D01*
X170757090Y-67105012D01*
X170755308Y-67097469D01*
X170756773Y-67097122D01*
X170752409Y-67036151D01*
X170756819Y-67021133D01*
X170757089Y-67019988D01*
X170757088Y-67019988D01*
X170757091Y-67019983D01*
X170763500Y-66960373D01*
X170763499Y-66364628D01*
X170757091Y-66305017D01*
X170748002Y-66280649D01*
X170706797Y-66170171D01*
X170706793Y-66170164D01*
X170620547Y-66054955D01*
X170620544Y-66054952D01*
X170505335Y-65968706D01*
X170505328Y-65968702D01*
X170432982Y-65941719D01*
X170377048Y-65899848D01*
X170352631Y-65834383D01*
X170367483Y-65766110D01*
X170405190Y-65723963D01*
X170509401Y-65650995D01*
X170676495Y-65483901D01*
X170812035Y-65290330D01*
X170911903Y-65076163D01*
X170973063Y-64847908D01*
X170993659Y-64612500D01*
X170973063Y-64377092D01*
X170911903Y-64148837D01*
X170812035Y-63934671D01*
X170812034Y-63934669D01*
X170676494Y-63741097D01*
X170509402Y-63574005D01*
X170315830Y-63438465D01*
X170315828Y-63438464D01*
X170208746Y-63388531D01*
X170101663Y-63338597D01*
X170101659Y-63338596D01*
X170101655Y-63338594D01*
X169873413Y-63277438D01*
X169873403Y-63277436D01*
X169696966Y-63262000D01*
X168579034Y-63262000D01*
X168402596Y-63277436D01*
X168402586Y-63277438D01*
X168174344Y-63338594D01*
X168174335Y-63338598D01*
X167960171Y-63438464D01*
X167960169Y-63438465D01*
X167766595Y-63574007D01*
X167764201Y-63576016D01*
X167762935Y-63576569D01*
X167762164Y-63577110D01*
X167762055Y-63576954D01*
X167700191Y-63604026D01*
X167631200Y-63592983D01*
X167579131Y-63546394D01*
X167560500Y-63481023D01*
X167560500Y-60355225D01*
X167580185Y-60288186D01*
X167622602Y-60251150D01*
X167621187Y-60248855D01*
X167627332Y-60245064D01*
X167627334Y-60245064D01*
X167776656Y-60152962D01*
X167900712Y-60028906D01*
X167992814Y-59879584D01*
X168047999Y-59713047D01*
X168058500Y-59610259D01*
X168058499Y-58260242D01*
X168047999Y-58157453D01*
X167992814Y-57990916D01*
X167900712Y-57841594D01*
X167776656Y-57717538D01*
X167678151Y-57656780D01*
X167627336Y-57625437D01*
X167627331Y-57625435D01*
X167625862Y-57624948D01*
X167460797Y-57570251D01*
X167460795Y-57570250D01*
X167358010Y-57559750D01*
X166507998Y-57559750D01*
X166507980Y-57559751D01*
X166405203Y-57570250D01*
X166405200Y-57570251D01*
X166238668Y-57625435D01*
X166238663Y-57625437D01*
X166089342Y-57717539D01*
X165965289Y-57841592D01*
X165873187Y-57990913D01*
X165873186Y-57990916D01*
X165818001Y-58157453D01*
X165818001Y-58157454D01*
X165818000Y-58157454D01*
X165807500Y-58260233D01*
X165807500Y-59610251D01*
X165807501Y-59610268D01*
X165818000Y-59713046D01*
X165818001Y-59713049D01*
X165873185Y-59879581D01*
X165873186Y-59879584D01*
X165965288Y-60028906D01*
X166089344Y-60152962D01*
X166238666Y-60245064D01*
X166238667Y-60245064D01*
X166244813Y-60248855D01*
X166243372Y-60251191D01*
X166286317Y-60288972D01*
X166305500Y-60355225D01*
X166305500Y-65350500D01*
X166285815Y-65417539D01*
X166233011Y-65463294D01*
X166181500Y-65474500D01*
X165581248Y-65474500D01*
X165581230Y-65474501D01*
X165478453Y-65485000D01*
X165478450Y-65485001D01*
X165311918Y-65540185D01*
X165311913Y-65540187D01*
X165162592Y-65632289D01*
X165068931Y-65725951D01*
X165007608Y-65759436D01*
X164937916Y-65754452D01*
X164893569Y-65725951D01*
X164799907Y-65632289D01*
X164799906Y-65632288D01*
X164707138Y-65575069D01*
X164650586Y-65540187D01*
X164650581Y-65540185D01*
X164625630Y-65531917D01*
X164484047Y-65485001D01*
X164484045Y-65485000D01*
X164381260Y-65474500D01*
X163756248Y-65474500D01*
X163756230Y-65474501D01*
X163653453Y-65485000D01*
X163653450Y-65485001D01*
X163486918Y-65540185D01*
X163486913Y-65540187D01*
X163337592Y-65632289D01*
X163213539Y-65756342D01*
X163121437Y-65905663D01*
X163121435Y-65905668D01*
X163093599Y-65989670D01*
X163066251Y-66072203D01*
X163066251Y-66072204D01*
X163066250Y-66072204D01*
X163055750Y-66174983D01*
X163055750Y-66192968D01*
X163036065Y-66260007D01*
X163019431Y-66280649D01*
X162333703Y-66966376D01*
X162321419Y-66976219D01*
X162321599Y-66976437D01*
X162315588Y-66981409D01*
X162268072Y-67032008D01*
X162247125Y-67052955D01*
X162242856Y-67058459D01*
X162239065Y-67062897D01*
X162207058Y-67096980D01*
X162207055Y-67096984D01*
X162197356Y-67114627D01*
X162186678Y-67130883D01*
X162174344Y-67146784D01*
X162174339Y-67146792D01*
X162155775Y-67189693D01*
X162153204Y-67194941D01*
X162130677Y-67235917D01*
X162125670Y-67255418D01*
X162119366Y-67273828D01*
X162114531Y-67285000D01*
X162069839Y-67338707D01*
X162003206Y-67359725D01*
X162000731Y-67359750D01*
X160428749Y-67359750D01*
X160361710Y-67340065D01*
X160315955Y-67287261D01*
X160304749Y-67235750D01*
X160304749Y-67233132D01*
X160304750Y-67233123D01*
X160304749Y-65637378D01*
X160303004Y-65621145D01*
X160315408Y-65552386D01*
X160318883Y-65545928D01*
X160370929Y-65455784D01*
X160429424Y-65275756D01*
X160449210Y-65087500D01*
X160429424Y-64899244D01*
X160370929Y-64719216D01*
X160276283Y-64555284D01*
X160157823Y-64423721D01*
X160127593Y-64360730D01*
X160136218Y-64291394D01*
X160180960Y-64237729D01*
X160247612Y-64216771D01*
X160249973Y-64216749D01*
X160335252Y-64216749D01*
X160335258Y-64216749D01*
X160438047Y-64206249D01*
X160604584Y-64151064D01*
X160753906Y-64058962D01*
X160877962Y-63934906D01*
X160970064Y-63785584D01*
X161025249Y-63619047D01*
X161035750Y-63516259D01*
X161035749Y-63019332D01*
X161055433Y-62952294D01*
X161072063Y-62931657D01*
X163656654Y-60347066D01*
X163717975Y-60313583D01*
X163744324Y-60310749D01*
X164558008Y-60310749D01*
X164558016Y-60310748D01*
X164558019Y-60310748D01*
X164614302Y-60304998D01*
X164660797Y-60300249D01*
X164827334Y-60245064D01*
X164976656Y-60152962D01*
X165100712Y-60028906D01*
X165192814Y-59879584D01*
X165247999Y-59713047D01*
X165258500Y-59610259D01*
X165258499Y-58260242D01*
X165247999Y-58157453D01*
X165192814Y-57990916D01*
X165100712Y-57841594D01*
X164976656Y-57717538D01*
X164878151Y-57656780D01*
X164827336Y-57625437D01*
X164827331Y-57625435D01*
X164825862Y-57624948D01*
X164660797Y-57570251D01*
X164660795Y-57570250D01*
X164558010Y-57559750D01*
X163707998Y-57559750D01*
X163707980Y-57559751D01*
X163605203Y-57570250D01*
X163605200Y-57570251D01*
X163438668Y-57625435D01*
X163438663Y-57625437D01*
X163289342Y-57717539D01*
X163165289Y-57841592D01*
X163073187Y-57990913D01*
X163073186Y-57990916D01*
X163018001Y-58157453D01*
X163018001Y-58157454D01*
X163018000Y-58157454D01*
X163007500Y-58260233D01*
X163007500Y-58990415D01*
X162987815Y-59057454D01*
X162971181Y-59078096D01*
X160416555Y-61632721D01*
X160355232Y-61666206D01*
X160285540Y-61661222D01*
X160241193Y-61632721D01*
X158884331Y-60275859D01*
X158850846Y-60214536D01*
X158848691Y-60201137D01*
X158841924Y-60136748D01*
X158841924Y-60136745D01*
X158841922Y-60136740D01*
X158814785Y-60053219D01*
X158783431Y-59956721D01*
X158783428Y-59956715D01*
X158738898Y-59879586D01*
X158688783Y-59792784D01*
X158562121Y-59652112D01*
X158562120Y-59652111D01*
X158408984Y-59540851D01*
X158408979Y-59540848D01*
X158236057Y-59463857D01*
X158236052Y-59463855D01*
X158090251Y-59432865D01*
X158050896Y-59424500D01*
X157861604Y-59424500D01*
X157829147Y-59431398D01*
X157676447Y-59463855D01*
X157676442Y-59463857D01*
X157503520Y-59540848D01*
X157503515Y-59540851D01*
X157350379Y-59652111D01*
X157223716Y-59792785D01*
X157129071Y-59956715D01*
X157129068Y-59956722D01*
X157070577Y-60136740D01*
X157070576Y-60136744D01*
X157050790Y-60325000D01*
X157070576Y-60513256D01*
X157070577Y-60513259D01*
X157129068Y-60693277D01*
X157129071Y-60693284D01*
X157223717Y-60857216D01*
X157350379Y-60997888D01*
X157503515Y-61109148D01*
X157503520Y-61109151D01*
X157676442Y-61186142D01*
X157676443Y-61186142D01*
X157676447Y-61186144D01*
X157848437Y-61222701D01*
X157909919Y-61255893D01*
X157910338Y-61256310D01*
X158348931Y-61694903D01*
X158382416Y-61756226D01*
X158385250Y-61782584D01*
X158385250Y-64216249D01*
X158435222Y-64216249D01*
X158435236Y-64216248D01*
X158537947Y-64205755D01*
X158704369Y-64150608D01*
X158704374Y-64150606D01*
X158853595Y-64058565D01*
X158977568Y-63934592D01*
X158979415Y-63931598D01*
X158981219Y-63929974D01*
X158982048Y-63928927D01*
X158982226Y-63929068D01*
X159031360Y-63884871D01*
X159100323Y-63873646D01*
X159164406Y-63901486D01*
X159190493Y-63931591D01*
X159192393Y-63934671D01*
X159192539Y-63934907D01*
X159288623Y-64030991D01*
X159322108Y-64092314D01*
X159317124Y-64162006D01*
X159275252Y-64217939D01*
X159251379Y-64231951D01*
X159091017Y-64303350D01*
X159091015Y-64303351D01*
X158937879Y-64414611D01*
X158811216Y-64555285D01*
X158716571Y-64719215D01*
X158716568Y-64719222D01*
X158658077Y-64899240D01*
X158658076Y-64899244D01*
X158639687Y-65074211D01*
X158613102Y-65138826D01*
X158555805Y-65178811D01*
X158516366Y-65185250D01*
X158406416Y-65185250D01*
X158344845Y-65191869D01*
X158318338Y-65191869D01*
X158309068Y-65190872D01*
X158252123Y-65184750D01*
X158252115Y-65184750D01*
X157606379Y-65184750D01*
X157606370Y-65184751D01*
X157542498Y-65191617D01*
X157515992Y-65191617D01*
X157511733Y-65191159D01*
X157452123Y-65184750D01*
X157452114Y-65184750D01*
X156806379Y-65184750D01*
X156806370Y-65184751D01*
X156742498Y-65191617D01*
X156715992Y-65191617D01*
X156711733Y-65191159D01*
X156652123Y-65184750D01*
X156652114Y-65184750D01*
X156006379Y-65184750D01*
X156006370Y-65184751D01*
X155942498Y-65191617D01*
X155915992Y-65191617D01*
X155911733Y-65191159D01*
X155852123Y-65184750D01*
X155852114Y-65184750D01*
X155206379Y-65184750D01*
X155206370Y-65184751D01*
X155142498Y-65191617D01*
X155115992Y-65191617D01*
X155111733Y-65191159D01*
X155052123Y-65184750D01*
X155052114Y-65184750D01*
X154406379Y-65184750D01*
X154406370Y-65184751D01*
X154342498Y-65191617D01*
X154315992Y-65191617D01*
X154311733Y-65191159D01*
X154252123Y-65184750D01*
X154252114Y-65184750D01*
X153606379Y-65184750D01*
X153606370Y-65184751D01*
X153542498Y-65191617D01*
X153515992Y-65191617D01*
X153511733Y-65191159D01*
X153452123Y-65184750D01*
X153452114Y-65184750D01*
X152806379Y-65184750D01*
X152806375Y-65184751D01*
X152758410Y-65189907D01*
X152746767Y-65191159D01*
X152746766Y-65191159D01*
X152740154Y-65191870D01*
X152713643Y-65191869D01*
X152652092Y-65185250D01*
X152579250Y-65185250D01*
X152579250Y-65203840D01*
X152559565Y-65270879D01*
X152529563Y-65303106D01*
X152496701Y-65327706D01*
X152428516Y-65418790D01*
X152372582Y-65460661D01*
X152302891Y-65465645D01*
X152241568Y-65432159D01*
X152229984Y-65418790D01*
X152161798Y-65327706D01*
X152161796Y-65327705D01*
X152161796Y-65327704D01*
X152128936Y-65303105D01*
X152087067Y-65247171D01*
X152079250Y-65203840D01*
X152079250Y-65185250D01*
X152006416Y-65185250D01*
X151944845Y-65191869D01*
X151918338Y-65191869D01*
X151909068Y-65190872D01*
X151852123Y-65184750D01*
X151852115Y-65184750D01*
X151206379Y-65184750D01*
X151206373Y-65184751D01*
X151146766Y-65191158D01*
X151011921Y-65241452D01*
X151011914Y-65241456D01*
X150896705Y-65327702D01*
X150896702Y-65327705D01*
X150810456Y-65442914D01*
X150810452Y-65442921D01*
X150760158Y-65577767D01*
X150753751Y-65637366D01*
X150753750Y-65637385D01*
X150753750Y-67235750D01*
X150734065Y-67302789D01*
X150681261Y-67348544D01*
X150629750Y-67359750D01*
X149031379Y-67359750D01*
X149031373Y-67359751D01*
X148964054Y-67366988D01*
X148963860Y-67365188D01*
X148903878Y-67361968D01*
X148847210Y-67321097D01*
X148839602Y-67310130D01*
X148838965Y-67309098D01*
X148838963Y-67309095D01*
X148744945Y-67215077D01*
X148711460Y-67153754D01*
X148716444Y-67084062D01*
X148744945Y-67039714D01*
X148838567Y-66946092D01*
X148930606Y-66796874D01*
X148930608Y-66796869D01*
X148985755Y-66630447D01*
X148985756Y-66630440D01*
X148996249Y-66527736D01*
X148996250Y-66527723D01*
X148996250Y-66465250D01*
X146596251Y-66465250D01*
X146596251Y-66527736D01*
X146606744Y-66630447D01*
X146661891Y-66796869D01*
X146661893Y-66796874D01*
X146753934Y-66946095D01*
X146847554Y-67039715D01*
X146881039Y-67101038D01*
X146876055Y-67170730D01*
X146847555Y-67215077D01*
X146753537Y-67309095D01*
X146661437Y-67458413D01*
X146661436Y-67458416D01*
X146606251Y-67624953D01*
X146606251Y-67624954D01*
X146606250Y-67624954D01*
X146595750Y-67727733D01*
X146595750Y-68352751D01*
X146595751Y-68352769D01*
X146606250Y-68455546D01*
X146606251Y-68455549D01*
X146661435Y-68622081D01*
X146661437Y-68622086D01*
X146686365Y-68662500D01*
X146749357Y-68764628D01*
X146753539Y-68771407D01*
X146878201Y-68896069D01*
X146911686Y-68957392D01*
X146906702Y-69027084D01*
X146864830Y-69083017D01*
X146799366Y-69107434D01*
X146790520Y-69107750D01*
X145452781Y-69107750D01*
X145385742Y-69088065D01*
X145365100Y-69071431D01*
X144607378Y-68313709D01*
X144573893Y-68252386D01*
X144571740Y-68239006D01*
X144554424Y-68074244D01*
X144495929Y-67894216D01*
X144401283Y-67730284D01*
X144274621Y-67589612D01*
X144274620Y-67589611D01*
X144121484Y-67478351D01*
X144121479Y-67478348D01*
X143948557Y-67401357D01*
X143948552Y-67401355D01*
X143799782Y-67369734D01*
X143763396Y-67362000D01*
X143574104Y-67362000D01*
X143550637Y-67366988D01*
X143388947Y-67401355D01*
X143388942Y-67401357D01*
X143216020Y-67478348D01*
X143216015Y-67478351D01*
X143062879Y-67589611D01*
X142936216Y-67730285D01*
X142841571Y-67894215D01*
X142841568Y-67894222D01*
X142783077Y-68074239D01*
X142781804Y-68080231D01*
X142748612Y-68141713D01*
X142687450Y-68175491D01*
X142686295Y-68175742D01*
X142595196Y-68195106D01*
X142595192Y-68195107D01*
X142422270Y-68272098D01*
X142422265Y-68272101D01*
X142269129Y-68383361D01*
X142142466Y-68524035D01*
X142047821Y-68687965D01*
X142047818Y-68687972D01*
X141989327Y-68867990D01*
X141989326Y-68867994D01*
X141969540Y-69056250D01*
X141989326Y-69244506D01*
X141989327Y-69244509D01*
X142047818Y-69424527D01*
X142047821Y-69424534D01*
X142142467Y-69588466D01*
X142215924Y-69670048D01*
X142269129Y-69729138D01*
X142422265Y-69840398D01*
X142422270Y-69840401D01*
X142595192Y-69917392D01*
X142595197Y-69917394D01*
X142780354Y-69956750D01*
X142836719Y-69956750D01*
X142903758Y-69976435D01*
X142924400Y-69993069D01*
X143427400Y-70496069D01*
X143460885Y-70557392D01*
X143455901Y-70627084D01*
X143414029Y-70683017D01*
X143348565Y-70707434D01*
X143339719Y-70707750D01*
X142290281Y-70707750D01*
X142223242Y-70688065D01*
X142202600Y-70671431D01*
X141323819Y-69792650D01*
X141290334Y-69731327D01*
X141287500Y-69704969D01*
X141287500Y-65965250D01*
X146596250Y-65965250D01*
X147546250Y-65965250D01*
X147546250Y-65202750D01*
X148046250Y-65202750D01*
X148046250Y-65965250D01*
X148996249Y-65965250D01*
X148996249Y-65902778D01*
X148996248Y-65902763D01*
X148985755Y-65800052D01*
X148930608Y-65633630D01*
X148930606Y-65633625D01*
X148838565Y-65484404D01*
X148714595Y-65360434D01*
X148565374Y-65268393D01*
X148565369Y-65268391D01*
X148398947Y-65213244D01*
X148398940Y-65213243D01*
X148296236Y-65202750D01*
X148046250Y-65202750D01*
X147546250Y-65202750D01*
X147296279Y-65202750D01*
X147296262Y-65202751D01*
X147193552Y-65213244D01*
X147027130Y-65268391D01*
X147027125Y-65268393D01*
X146877904Y-65360434D01*
X146753934Y-65484404D01*
X146661893Y-65633625D01*
X146661891Y-65633630D01*
X146606744Y-65800052D01*
X146606743Y-65800059D01*
X146596250Y-65902763D01*
X146596250Y-65965250D01*
X141287500Y-65965250D01*
X141287500Y-61912500D01*
X149113290Y-61912500D01*
X149133076Y-62100756D01*
X149133077Y-62100759D01*
X149191568Y-62280777D01*
X149191571Y-62280784D01*
X149286217Y-62444716D01*
X149412879Y-62585388D01*
X149566015Y-62696648D01*
X149566020Y-62696651D01*
X149738941Y-62773642D01*
X149738944Y-62773642D01*
X149738947Y-62773644D01*
X149797530Y-62786096D01*
X149859012Y-62819288D01*
X149892789Y-62880451D01*
X149895750Y-62907386D01*
X149895750Y-63389251D01*
X149895751Y-63389269D01*
X149906250Y-63492046D01*
X149906251Y-63492049D01*
X149948334Y-63619045D01*
X149961436Y-63658584D01*
X150053538Y-63807906D01*
X150177594Y-63931962D01*
X150326916Y-64024064D01*
X150493453Y-64079249D01*
X150596241Y-64089750D01*
X151196258Y-64089749D01*
X151196266Y-64089748D01*
X151196269Y-64089748D01*
X151252552Y-64083998D01*
X151299047Y-64079249D01*
X151465584Y-64024064D01*
X151614906Y-63931962D01*
X151738962Y-63807906D01*
X151741002Y-63804597D01*
X151742995Y-63802805D01*
X151743443Y-63802239D01*
X151743539Y-63802315D01*
X151792944Y-63757873D01*
X151861906Y-63746645D01*
X151925990Y-63774484D01*
X151952079Y-63804589D01*
X151953931Y-63807591D01*
X151953933Y-63807594D01*
X152077904Y-63931565D01*
X152227125Y-64023606D01*
X152227130Y-64023608D01*
X152393552Y-64078755D01*
X152393559Y-64078756D01*
X152496269Y-64089249D01*
X152546249Y-64089248D01*
X152546250Y-64089248D01*
X152546250Y-63114250D01*
X153046250Y-63114250D01*
X153046250Y-64089249D01*
X153096222Y-64089249D01*
X153096236Y-64089248D01*
X153198947Y-64078755D01*
X153365369Y-64023608D01*
X153365374Y-64023606D01*
X153514595Y-63931565D01*
X153638565Y-63807595D01*
X153730606Y-63658374D01*
X153730608Y-63658369D01*
X153785755Y-63491947D01*
X153785756Y-63491940D01*
X153796249Y-63389236D01*
X153796250Y-63389223D01*
X153796250Y-63241250D01*
X157135251Y-63241250D01*
X157135251Y-63516236D01*
X157145744Y-63618947D01*
X157200891Y-63785369D01*
X157200893Y-63785374D01*
X157292934Y-63934595D01*
X157416904Y-64058565D01*
X157566125Y-64150606D01*
X157566130Y-64150608D01*
X157732552Y-64205755D01*
X157732559Y-64205756D01*
X157835269Y-64216249D01*
X157885249Y-64216248D01*
X157885250Y-64216248D01*
X157885250Y-63241250D01*
X157135251Y-63241250D01*
X153796250Y-63241250D01*
X153796250Y-63114250D01*
X153046250Y-63114250D01*
X152546250Y-63114250D01*
X152546250Y-62741250D01*
X157135250Y-62741250D01*
X157885250Y-62741250D01*
X157885250Y-61766250D01*
X157885249Y-61766249D01*
X157835279Y-61766250D01*
X157835261Y-61766251D01*
X157732552Y-61776744D01*
X157566130Y-61831891D01*
X157566125Y-61831893D01*
X157416904Y-61923934D01*
X157292934Y-62047904D01*
X157200893Y-62197125D01*
X157200891Y-62197130D01*
X157145744Y-62363552D01*
X157145743Y-62363559D01*
X157135250Y-62466263D01*
X157135250Y-62741250D01*
X152546250Y-62741250D01*
X152546250Y-61639250D01*
X153046250Y-61639250D01*
X153046250Y-62614250D01*
X153796249Y-62614250D01*
X153796249Y-62339278D01*
X153796248Y-62339263D01*
X153785755Y-62236552D01*
X153730608Y-62070130D01*
X153730606Y-62070125D01*
X153638565Y-61920904D01*
X153514595Y-61796934D01*
X153365374Y-61704893D01*
X153365369Y-61704891D01*
X153198947Y-61649744D01*
X153198940Y-61649743D01*
X153096236Y-61639250D01*
X153046250Y-61639250D01*
X152546250Y-61639250D01*
X152546249Y-61639249D01*
X152496279Y-61639250D01*
X152496261Y-61639251D01*
X152393552Y-61649744D01*
X152227130Y-61704891D01*
X152227125Y-61704893D01*
X152077904Y-61796934D01*
X151953933Y-61920905D01*
X151953929Y-61920910D01*
X151952076Y-61923915D01*
X151950268Y-61925540D01*
X151949452Y-61926573D01*
X151949275Y-61926433D01*
X151900124Y-61970635D01*
X151831161Y-61981851D01*
X151767081Y-61954002D01*
X151741003Y-61923903D01*
X151740987Y-61923878D01*
X151738962Y-61920594D01*
X151614906Y-61796538D01*
X151465584Y-61704436D01*
X151299047Y-61649251D01*
X151299045Y-61649250D01*
X151196266Y-61638750D01*
X151196259Y-61638750D01*
X150966736Y-61638750D01*
X150899697Y-61619065D01*
X150853942Y-61566261D01*
X150848804Y-61553064D01*
X150845931Y-61544222D01*
X150845930Y-61544221D01*
X150845929Y-61544216D01*
X150751283Y-61380284D01*
X150624621Y-61239612D01*
X150624620Y-61239611D01*
X150471484Y-61128351D01*
X150471479Y-61128348D01*
X150298557Y-61051357D01*
X150298552Y-61051355D01*
X150152751Y-61020365D01*
X150113396Y-61012000D01*
X149924104Y-61012000D01*
X149891647Y-61018898D01*
X149738947Y-61051355D01*
X149738942Y-61051357D01*
X149566020Y-61128348D01*
X149566015Y-61128351D01*
X149412879Y-61239611D01*
X149286216Y-61380285D01*
X149191571Y-61544215D01*
X149191568Y-61544222D01*
X149134324Y-61720403D01*
X149133076Y-61724244D01*
X149113290Y-61912500D01*
X141287500Y-61912500D01*
X141287500Y-55687000D01*
X141307185Y-55619961D01*
X141359989Y-55574206D01*
X141411500Y-55563000D01*
X173035623Y-55563000D01*
X173039366Y-55563113D01*
G37*
%TD.AperFunction*%
%TD*%
M02*
